<?xml version="1.0" encoding="utf-8"?>
<!-- Generator: Adobe Illustrator 26.0.2, SVG Export Plug-In . SVG Version: 6.00 Build 0)  -->
<svg version="1.1" id="Layer_1" xmlns="http://www.w3.org/2000/svg" xmlns:xlink="http://www.w3.org/1999/xlink" x="0px" y="0px"
	 viewBox="0 0 1000 1000" style="enable-background:new 0 0 1000 1000;" xml:space="preserve">
<style type="text/css">
	.st0{fill:#DBB471;}
	.st1{fill:#FED0AC;}
	.st2{fill:#E3DBDB;stroke:#280B0B;stroke-width:0.6649;}
	.st3{fill:#FF5555;stroke:#241C1C;stroke-width:0.6649;}
	.st4{fill:#FFAAAA;stroke:#241C1C;stroke-width:0.6649;}
	.st5{fill:#FF80E5;stroke:#241C1C;stroke-width:0.6649;}
	.st6{fill:#FFAAEE;stroke:#241C1C;}
	.st7{fill:#FF0000;stroke:#D40000;stroke-width:1.0993;stroke-miterlimit:4.0036;}
	.st8{fill:#E07297;}
	.st9{fill:#B85D7B;}
	.st10{fill:#FFFFFF;}
	.st11{fill:#FF5760;}
	.st12{fill:#F4D7D7;stroke:#2B0000;stroke-width:0.924;}
	.st13{fill:#AA0000;stroke:#2B0000;stroke-width:0.924;}
	.st14{fill:#FF5555;stroke:#2B0000;stroke-width:1.0043;}
	.st15{fill:#FFAAAA;stroke:#2B0000;stroke-width:0.924;}
	.st16{fill:#D40000;stroke:#2B0000;stroke-width:0.9324;}
	.st17{fill:#FF5555;stroke:#2B0000;stroke-width:0.9185;}
	.st18{fill:#E3DBDB;stroke:#E3DBDB;stroke-width:0.924;}
	.st19{fill:#E3DBDB;stroke:#E3DBDB;stroke-width:1.5944;}
	.st20{fill:#FF2A2A;stroke:#FF2A2A;stroke-width:0.924;}
	.st21{fill:#D35F5F;stroke:#241C1C;stroke-width:0.8455;}
	.st22{fill:#FF5555;stroke:#241C1C;stroke-width:0.9085;}
	.st23{fill:#D40000;stroke:#241C1C;stroke-width:0.924;}
	.st24{fill:#FFAAAA;stroke:#241C1C;stroke-width:0.924;}
	.st25{fill:#FF5555;stroke:#241C1C;stroke-width:0.924;}
	.st26{fill:#FFD5D5;stroke:#241C1C;stroke-width:1.3068;}
	.st27{fill:#FF2A2A;stroke:#280B0B;stroke-width:1.3177;}
	.st28{fill:#E3DBDB;stroke:#280B0B;stroke-width:0.9028;}
	.st29{fill:#FF0000;stroke:#FFFFFF;stroke-width:0.4493;}
	.st30{fill:#FF0000;stroke:#FFFFFF;stroke-width:0.4554;}
	.st31{fill:#D35F5F;stroke:#241C1C;stroke-width:0.8534;}
	.st32{fill:#EF6161;fill-opacity:0.9741;stroke:#280B0B;stroke-width:1.6362;}
	.st33{fill:#FF0000;stroke:#FFFFFF;stroke-width:1.0983;}
	.st34{fill:#FF0000;stroke:#280B0B;stroke-width:1.2802;}
	.st35{fill:#FF0000;stroke:#280B0B;stroke-width:1.2788;}
	.st36{fill:#FF8080;stroke:#F4D7D7;stroke-width:1.9641;}
	.st37{fill:#FF5555;stroke:#280B0B;stroke-width:1.6362;}
	.st38{fill:#FF0000;stroke:#280B0B;}
	.st39{fill:#FF0000;stroke:#280B0B;stroke-width:0.9989;}
	.st40{fill:#D40000;stroke:#FFFFFF;stroke-width:0.8098;}
	.st41{fill:#E3DBDB;stroke:#280B0B;stroke-width:0.9867;}
	.st42{fill:#E3DBDB;stroke:#280B0B;}
	.st43{fill:#FF0000;stroke:#280B0B;stroke-width:0.5;}
	.st44{fill:#C83737;stroke:#280B0B;stroke-width:0.5;}
	.st45{fill:#FF8080;stroke:#280B0B;stroke-width:0.5;}
	.st46{fill:#D40000;stroke:#C83737;}
	.st47{fill:#D40000;stroke:#C83737;stroke-width:0.9867;}
	.st48{fill:#FFD5D5;stroke:#F4D7D7;}
	.st49{fill:#F5F5F5;}
	.st50{fill:#6235A8;}
	.st51{fill:#2B2925;}
	.st52{fill:#3B3226;}
	.st53{fill:#E0A372;}
	.st54{fill:#FF7BDC;}
	.st55{fill:#508EED;}
	.st56{fill:#FFFFFF;stroke:#280B0B;stroke-width:1.2788;}
	.st57{fill:none;}
	.st58{fill:none;stroke:#000000;stroke-miterlimit:10;}
</style>
<g id="illustration">
	<path class="st0" d="M570.3,254.1v-84.3c0-56.7-38.6-55.7-38.6-55.7s-2.8-11.4-32.6-11.4c-46,0-71.1,28.9-71.1,67.1v84.8l4.9,46.3
		l1.7,4.5l2.6-9.5c1.6-3.6,3.2-10.3,4.6-17.2l4.8-17.9l11.9,38.8l0.7-9l0.5,6.2l10-34.7l12.6,36.3l2.6-8.8l2.4,12.3l12.1-46.8
		l16.5,46.6l1.5-13.9l3.1,7.9l9.2-36.2l13.3,34.6v-7.7l1.4,8.4l8.6-40.2l16.6,46.3l3.2-6.9c0.3-0.2,0.5-0.5,0.8-0.9
		C576.8,288.3,574.2,271.4,570.3,254.1z"/>
	<path id="path17371_00000167389571082512128430000017420553035894300075_" class="st1" d="M445.1,182.3c0,0-11.2-2.8-11.2-19
		c0-12.9,8.4-14.9,8.4-14.9c76.7-0.3,98.3-16,98.3-16s4.8,15.7,16.8,15.7c0,0,8.6,1.5,8.6,14.9c0,16.2-11.4,19-11.4,19
		c-0.3,24.6-34,54.2-54.6,54.2C479.4,236.2,445.1,206.6,445.1,182.3"/>
	<ellipse id="path8751" class="st2" cx="531.4" cy="63.4" rx="0.4" ry="0.4"/>
	<path id="path11113" class="st3" d="M423.8,86.6c4.8-2.2,25.5-59.3,88.5-56c-2.4-1.1,48.5,12.3,53.3,61.6
		C562,96.7,423.8,86.6,423.8,86.6L423.8,86.6z"/>
	<path id="path11056" class="st3" d="M385,112.4c0,0,35.2-41.4,101.8-38.1c2.4,0,57,2.2,67.9,12.3c-9.7-6.7,46.1,26.9,42.4,57.1
		c3.6-2.2-2.4-5.6-2.4-5.6h3.6l1.2,4.5"/>
	<path id="path11054" class="st4" d="M383.8,112.4c0,0,146.7-41.4,219.4,34.7C598.4,140.4,486.8,166.1,383.8,112.4z"/>
	<path id="path11118" class="st5" d="M437.9,65c7.7,0,84-10.3,119.2,7.1c0-2.4,9.4,19.8,9.4,19.8s-84.9-28.5-139.7-10.3
		C427.6,84,437.9,65,437.9,65z"/>
	<path id="path11282" class="st6" d="M560.5,80.1c0,0-19.7,37.2-7.7,41.9c-5.1-3.2,5.1,3.2,11.1,0.8
		C562.2,121.2,556.2,85.6,560.5,80.1z"/>
	<path id="path11284" class="st6" d="M557.9,83.2c0,0,40.3,28.5,30,34.8c0.9-0.8,8.6-1.6,13.7-11.9C601.7,107,571.7,83.2,557.9,83.2
		z"/>
	<path id="path11256" class="st6" d="M540.8,76.1c0,0,4.3,30.9,18.9,23c-5.1,3.2,3.4-11.9,2.6-17.4c-0.9-5.5-18.9-14.2-22.3-9.5
		s3.4,0,3.4,0"/>
	<path id="path11280" class="st6" d="M560.5,80.1c0,0,15.4-32.5,25.7-19c-2.6-2.4,19.7,28.5,6.9,30.1
		C591.4,88.8,563.1,90.4,560.5,80.1z"/>
	<ellipse id="path5591-5-8-0-44-8-30" class="st7" cx="564.3" cy="81.7" rx="6" ry="6"/>
	<path id="path17389" class="st8" d="M499.2,199.5l-19.6-3.5c11.8,20.1,27.4,20.1,39.2,0L499.2,199.5z"/>
	<path id="path17391" class="st9" d="M506.8,195c-5.7-2.6-7.6,1.7-7.6,1.7s-2-4.3-7.6-1.7c-4.5,2.1-12,0.9-12,0.9
		c7.8,2.1,8.8,5.9,19.6,5.9s11.8-4,19.6-5.9C518.8,196,511.3,197.2,506.8,195"/>
	<path id="path17395" class="st10" d="M573.4,118.2c-2.3-1.1-5.4-0.3-7.2,2c-0.6-2.6-2-4.6-3.7-6c1.7,0,2.3-0.9,1.7-2
		c-0.6-2-1.4-4.3-5.4-7.1c0-4.6-3.4-8.9-3.4-8.9c-0.6-0.6-1.7-0.6-2.3,0.3c0,0.3-2.6,4.6-1.4,9.4c-4.3,3.7-4,7.7-3.7,8.6
		c-0.6,0-4.9,2.9-6,8.3c-2.3,0-3.7,1.7-3.7,1.7c0.9-6.3-4-12.6-11.5-12.3c-2-11.1-14.6-14.9-16.9-4c-1.4-2.9-4.6-5.1-4.6-5.1
		c1.1-5.4-3.4-14.3-6-14.3s-6.9,8.9-6,14.3c0,0-3.2,2.3-4.9,4.9c-2.3-10.9-15.2-7.1-16.9,4c-7.5-0.3-12.3,5.7-11.5,12.3
		c0,0-1.4-1.4-3.7-1.7c-1.1-5.4-5.2-8.3-6-8.3c0.3-0.6,0.6-4.9-3.7-8.6c1.1-4.9-1.4-9.1-1.4-9.4c-0.6-0.9-1.7-0.9-2.3-0.3
		c0,0-3.4,4.3-3.4,8.9c-4,2.6-4.9,4.9-5.4,7.1c-0.3,1.1,0.3,2.3,1.7,2c-1.7,1.4-2.9,3.4-3.7,6c-1.4-2-4.6-2.9-7.2-1.7
		c-2.9,1.4-3.7,5.1-2.3,8.3c1.7,4,6.9,4.3,9.5,1.4c1.1,6.3,7.7,8.9,12.9,4.6c-0.9,2.9,4,2.9,9.2-1.7c1.7,1.1,4.9,0.9,6,0.3
		c-0.3,3.4,1.4,8.9,7.5,8.9c4,0,5.7-2.9,5.4-5.1c2.3,0.9,6.6,1.7,9.7-0.3c6,5.1,10.3,6,10.6,2.9c1.7,1.4,4,2.3,6,2.3
		c2.3,0,4.3-0.9,6-2.3c0.3,2.9,4.6,2.3,10.6-2.9c3.2,2,7.2,1.4,9.7,0.3c-0.3,2.6,1.4,5.4,5.4,5.4c5.7,0,7.5-5.4,7.5-8.9
		c1.1,0.6,4.3,0.6,6-0.3c5.4,4.6,10,4.3,9.2,1.7c5.2,4.3,11.7,1.7,12.9-4.6c2.6,2.9,7.7,2.6,9.5-1.4
		C577.4,123.4,576.3,120,573.4,118.2 M437.3,111.4c0.6-2,2.6-3.1,2.6-3.1l0.6,2.3C440.2,110.5,438.7,111.7,437.3,111.4 M443.9,104
		h-1.7c0,0,0.3-2.6,1.4-3.7C444.2,102,443.9,104,443.9,104 M444.2,111.1l1.1-2.3c0,0,1.4,1.4,1.7,3.7
		C445.6,112.5,444.2,111.1,444.2,111.1 M446.5,115.4c0.6,0,2,0.3,2,0.3s-0.6,0.9-0.9,2.3C447.6,117.4,446.7,115.7,446.5,115.4
		 M447.9,131.9c0.6-2.6,2-4.3,2-4.3l2,2C451.6,129.4,449.9,131.4,447.9,131.9 M450.8,123.1c0,0-0.6-2.6,0-4.9c1.7,1.4,2.6,4,2.6,4
		L450.8,123.1 M455.6,128.2l0.6-2.6c0,0,2.3,0.6,3.7,2.6C458.2,129.1,455.6,128.2,455.6,128.2 M519.2,121.1c-1.4-3.1,0.3-5.7,5.7-6
		C527.3,124.5,520.4,123.4,519.2,121.1 M499.2,92.8c1.4,0,3.2,7.1,2.9,9.7h-5.7C496,100,497.7,92.8,499.2,92.8 M473.4,115.4
		c5.4,0.3,7.2,2.9,5.7,6C478,123.4,471.1,124.5,473.4,115.4 M465.4,125.7c-0.9,0.9-2.9,0-2.9-4C466.2,122.8,466.2,124.8,465.4,125.7
		 M472.2,131.7c-0.9-2.9-2.9-4-4-4.6c2-3.1,0.3-6.6-5.2-8c2.6-3.1,4.3-4.3,7.2-4.3c-2,8.9,2.9,13.1,9.2,9.4v1.4
		C476.5,126.5,474.3,128.8,472.2,131.7 M475.1,132.5c0.9-2,4.6-4,4.6-4l1.1,3.4C480.8,132.2,478,133.4,475.1,132.5 M482,119.1
		c-0.3-3.1-0.9-5.4-7.7-6.9c2.3-10,10.3-9.4,11.2-4.6c0.6,3.4-4,4.6-2.9-0.3c0.6-1.7-2-2.6-2.9-0.9c-0.9,2.3-1.1,8.9,6,6
		c-0.6,1.7-1.4,2.6-0.9,3.4C484.3,116.5,483.1,117.7,482,119.1 M485.4,119.7c1.1,2.9,0.6,6.3,0.6,6.3l-3.4-0.6
		C482.6,125.1,483.4,122,485.4,119.7 M484.9,132.8l2.3-2.6c0,0,2.3,2.3,2.9,5.4C487.4,135.4,484.9,132.8,484.9,132.8 M488.9,122
		c0-2.3-1.4-4.6-1.4-4.6h3.7C491.2,117.4,489.4,119.4,488.9,122 M488,114.5c0.9-4.3,6.3-7.7,6.3-7.7l2.9,5.1
		C497.2,112,493.5,114.8,488,114.5 M499.2,109.1c-0.6-0.9-1.4-2-2-3.4h3.7C500.6,107.1,499.8,108.2,499.2,109.1 M501.2,112l2.9-5.1
		c0,0,5.7,3.7,6.3,7.7C504.9,114.8,501.2,112,501.2,112 M507.2,117.4h3.7c0,0-1.1,2.3-1.4,4.6C508.9,119.4,507.2,117.4,507.2,117.4
		 M508.4,135.7c0.6-3.1,2.9-5.4,2.9-5.4l2.3,2.6C513.5,132.8,510.9,135.4,508.4,135.7 M512.4,125.7c0,0-0.6-3.1,0.6-6.3
		c2,2.3,2.9,5.4,2.9,5.4L512.4,125.7 M513.5,116.2c0.6-0.9-0.3-2-0.9-3.4c7.2,3.1,6.9-3.4,6-6c-0.6-1.7-3.2-0.9-2.9,0.9
		c1.1,4.6-3.7,3.4-2.9,0.3c0.9-4.9,9.2-5.4,11.2,4.6c-6.9,1.1-7.5,3.7-7.7,6.9C515.2,117.7,514.1,116.5,513.5,116.2 M517.5,132.2
		l1.1-3.4c0,0,3.7,1.7,4.6,4C520.4,133.4,517.5,132.2,517.5,132.2 M530.1,127.1c-1.1,0.6-3.2,1.7-4,4.6c-1.7-2.9-4-5.1-7.2-6v-1.4
		c6.3,3.7,11.5-0.6,9.2-9.4c2.9,0,4.9,1.1,7.2,4.3C529.8,120.5,528.1,123.9,530.1,127.1 M533,125.7c-0.9-0.9-0.9-2.9,2.9-4
		C535.9,125.7,533.9,126.5,533,125.7 M538.4,128.2c1.7-2.3,3.7-2.6,3.7-2.6l0.6,2.6C542.7,128.2,540.2,129.1,538.4,128.2
		 M547.6,118.2c0.6,2,0,4.9,0,4.9l-2.6-0.9C545.3,122.2,545.9,119.7,547.6,118.2 M546.8,129.4l2-2c0,0,1.4,2,2,4.3
		C548.5,131.4,546.8,129.4,546.8,129.4 M550.5,117.7c-0.3-1.4-0.9-2.3-0.9-2.3s1.4,0,2-0.3C551.6,115.7,550.8,117.4,550.5,117.7
		 M551.3,112.5c0.3-2.3,1.7-3.7,1.7-3.7l1.1,2.3C554.2,111.1,552.8,112.5,551.3,112.5 M554.5,104c0,0-0.3-2.3,0.6-3.7
		c1.1,1.1,1.4,3.7,1.4,3.7H554.5 M558.2,110.5l0.6-2.3c0,0,1.7,1.1,2.6,3.1C559.6,111.7,558.2,110.5,558.2,110.5"/>
	<path id="path17397" class="st11" d="M569.4,126.8c-1.4-0.9-2-2.6-1.1-4.3c0.9-1.7,2.6-2.3,4-1.4s2,2.6,1.1,4.3
		C572.5,126.8,570.8,127.7,569.4,126.8"/>
	<path id="path17399" class="st11" d="M535,135.7c-1.7,2.3-4.3,2.9-6,1.4s-1.7-4.3-0.3-6.6c1.7-2.3,4.3-2.9,6-1.4
		C536.7,130.5,536.7,133.7,535,135.7"/>
	<path id="path17401" class="st11" d="M563.9,122.8c0.6,4.3-1.4,8.3-4.6,8.9c-3.2,0.6-6.3-2.6-6.9-7.1c-0.6-4.3,1.4-8.3,4.6-8.9
		C560.2,115.1,563.4,118.2,563.9,122.8"/>
	<path id="path17403" class="st11" d="M429,126.8c1.4-0.9,1.7-2.6,1.1-4.3c-0.9-1.4-2.6-2.3-4-1.4s-2,2.6-1.1,4.3
		C425.8,126.8,427.5,127.7,429,126.8"/>
	<ellipse id="ellipse17405" class="st11" cx="499.2" cy="126.5" rx="8.6" ry="10.9"/>
	<path id="path17407" class="st11" d="M463.4,135.7c1.7,2.3,4.3,2.9,6,1.4c1.7-1.4,1.7-4.3,0.3-6.6c-1.7-2.3-4.3-2.9-6-1.4
		C461.6,130.5,461.6,133.7,463.4,135.7"/>
	<path id="path17409" class="st11" d="M434.4,122.8c-0.6,4.3,1.4,8.3,4.6,8.9s6.3-2.6,6.9-7.1c0.6-4.3-1.4-8.3-4.6-8.9
		S435,118.2,434.4,122.8"/>
	<path id="path2573" class="st12" d="M318,840.1c0,0-51.8,57.8-32.3,76.3c0-3.5,39.1,53.2,72.4,25.4c-7.8,1.2,119.3,39.3,102.7,0
		c-2,5.8,72.4,41.6,103.7,20.8c-8.8,2.3,71.4,17.3,85.1-15c-3.9,3.5,70.4,31.2,98.8-4.6c-2.9,2.3,55.8,5.8,62.6-31.2
		c0-2.3-15.7-64.7-50.9-69.3C769.9,844.7,318,840.1,318,840.1L318,840.1z"/>
	<path id="path2571" class="st13" d="M609,895.9c-8.7-1.2-26-5.8-31.3-8.4c-3.3-1.6-3.5-1.6-6.2,1.6c-3.5,4.1-8.9,5.2-21.6,4.3
		c-14.5-1-36.1-7-45.5-12.6l-3.8-2.3l-1.9,3.1c-3.4,5.5-9,8-18.3,8c-13.3,0-35.4-6.7-49.2-15c-4.8-2.9-4.8-2.9-6.9-0.6
		c-5.3,5.7-8.2,6.6-22.1,6.5c-11.2,0-14.9-0.5-24-3.3c-5.9-1.8-13.9-5-17.8-7.2c-6.9-3.9-7-3.9-10.8-2.1c-5,2.5-16.4,1.6-24.8-1.9
		c-3.5-1.5-11.9-5.9-18.7-9.8c-6.8-4-12.9-7.4-13.6-7.7c-0.8-0.3,0.3-3.1,3.2-8.2c6.6-11.5,16.8-38.3,24.5-64.7
		c0.7-2.5,2.1-2.5,11.4-0.2c8.7,2.2,25.8,2.4,33.7,0.5c4.7-1.2,5.8-1.1,7.2,0.4c5.5,5.8,26.8,11.4,44.7,11.6
		c10.9,0.1,13.7-0.2,19.7-2.6c6.7-2.6,7.3-2.6,11.7-0.9c10.1,3.8,16.7,4.8,33.1,4.8c15.7,0,17-0.2,22.6-2.9c5.8-2.9,6-2.9,9.9-1
		c5.8,2.9,22.5,7.7,32.2,9.2c4.6,0.7,12.9,1.1,18.4,0.9c8.2-0.4,10.8-1,14.9-3.3c4.9-2.9,5-2.9,10.4-0.9c12.4,4.5,33,5.7,44.8,2.8
		c7.4-1.9,14.4-5.5,17.8-9.2c2.4-2.6,2.4-2.6,14.5-1c15,2,34.5,1.4,41.8-1.3c2.9-1.1,6.9-3.7,8.9-5.9c2.7-2.9,4.7-4,7-4
		c1.8,0,4.9-0.5,6.9-1l3.6-1l5.7,9.9c7.3,12.7,29.6,49.6,35.2,58.2c2.3,3.6,4.3,7.3,4.3,8.3c0,2.4-5.1,7.2-11.6,11.1
		c-5.5,3.3-22.6,10.5-24.9,10.4c-0.6,0-5.1,2.3-10,5.2c-15.6,9.2-32.3,12.8-55.4,12c-9.6-0.3-14.9-1-15.9-1.9
		c-1.2-1.2-2.2-0.8-5.9,2.5c-5.1,4.6-13.9,8.3-23.6,10C625.5,897.4,619.9,897.4,609,895.9z"/>
	<path id="path2486" class="st14" d="M339.1,699.6c0,0-36.8,57.8-26.1,73.1c10.7,15.3,46.2,20.4,66.4,10.2
		c-17.8,5.1,48.6,27.2,68.8,8.5c-8.3,1.7,45.1,18.7,66.4,1.7c-3.6,1.7,58.1,25.5,74.7,5.1c-4.7,3.4,51,18.7,68.8-5.1
		c-1.2-3.4,54.5,13.6,66.4-10.2c-3.6,1.7,35.6,0,28.5-23.8c0,3.4-30.8-76.5-42.7-78.2C698.4,679.2,339.1,699.6,339.1,699.6z"/>
	<path id="path2373" class="st15" d="M698.7,612.7c0,0,42.1,69.6,19.2,73.8c1.2,4.3-54.1,18.5-67.3,4.3c7.2,5.7-44.5,21.3-58.9,0
		c3.6,4.3-50.5,17-67.3,2.8c-4.8-4.3-46.9,27-73.3-1.4c-1.2-2.8-49.3,27-75.7,4.3c0,0-34.8,11.4-56.5,0c6,1.4,38.5-92.3,38.5-92.3
		L698.7,612.7z"/>
	<path id="path1650" class="st16" d="M355.8,544.1l-16.5,60.2c0,0,31.8,14.3,42.8,4.8c-5.5,1.6,29.6,11.1,37.3,3.2
		c-6.6,0,25.2,7.9,31.8,1.6c-8.8,3.2,26.3,19,32.9,7.9c-5.5,1.6,39.5,15.8,40.6-1.6c0,7.9,49.4,19,50.4,4.8
		c-3.3,4.8,37.3,6.3,42.8-11.1c-6.6,12.7,35.1,19,39.5,3.2c-3.3,7.9,31.8,11.1,35.1-3.2c-2.2,11.1,21.9,6.3,23-1.6
		c0,1.6-21.9-60.2-34-58.6C669.5,555.2,355.8,544.1,355.8,544.1L355.8,544.1z"/>
	<path id="path1648" class="st17" d="M401.7,451.7c0,0-52.1,68.1-43.6,101.4c-3.2-6.3,29.8,15.8,39.4-3.2
		c-3.2,1.6,24.5,22.2,35.1,6.3c3.2-7.9,42.6,23.8,50-1.6c0,0,53.2,25.3,53.2,0c-2.1,3.2,43.6,26.9,47.9,1.6
		c1.1,4.8,34,17.4,42.6-1.6c1.1,4.8,23.4,15.8,34,1.6c-2.1,0,37.2,11.1,41.5-4.8C699.6,557.8,600.7,447,600.7,447l0,0L401.7,451.7z"
		/>
	<ellipse id="path2897" class="st18" cx="378.6" cy="533.9" rx="9.8" ry="10.4"/>
	<ellipse id="path2897-6" class="st18" cx="428.5" cy="539.7" rx="9.8" ry="10.4"/>
	<ellipse id="path2897-5" class="st18" cx="479.4" cy="543.1" rx="9.8" ry="10.4"/>
	<ellipse id="path2897-1" class="st18" cx="531.2" cy="543.1" rx="9.8" ry="10.4"/>
	<ellipse id="path2897-55" class="st18" cx="583.1" cy="546.6" rx="9.8" ry="10.4"/>
	<ellipse id="path2897-63" class="st18" cx="620.2" cy="543.1" rx="9.8" ry="10.4"/>
	<ellipse id="path2897-0" class="st18" cx="656.2" cy="578.7" rx="9.8" ry="10.4"/>
	<ellipse id="path2897-8" class="st18" cx="388.4" cy="596.3" rx="9.8" ry="10.4"/>
	<ellipse id="path2897-52" class="st19" cx="335.8" cy="786.7" rx="16.8" ry="18.1"/>
	<ellipse id="path2897-52-9" class="st19" cx="475.5" cy="770.8" rx="16.8" ry="18.1"/>
	<ellipse id="path2897-52-20" class="st19" cx="614.4" cy="771.9" rx="16.8" ry="18.1"/>
	<ellipse id="path2897-52-5" class="st19" cx="391.3" cy="850.5" rx="16.8" ry="18.1"/>
	<ellipse id="path2897-52-4" class="st19" cx="465.7" cy="856.3" rx="16.8" ry="18.1"/>
	<ellipse id="path2897-52-1" class="st19" cx="532.2" cy="862" rx="16.8" ry="18.1"/>
	<ellipse id="path2897-52-6" class="st19" cx="612.4" cy="863.2" rx="16.8" ry="18.1"/>
	<ellipse id="path2897-52-10" class="st19" cx="676.7" cy="890.7" rx="16.8" ry="18.1"/>
	<ellipse id="path2897-52-69" class="st19" cx="733.4" cy="869.9" rx="16.8" ry="18.1"/>
	<ellipse id="path2897-52-2" class="st19" cx="324.6" cy="865.3" rx="16.8" ry="18.1"/>
	<ellipse id="path2897-527" class="st18" cx="402.1" cy="774.2" rx="9.8" ry="10.4"/>
	<ellipse id="path2897-542" class="st18" cx="554.7" cy="782.3" rx="9.8" ry="10.4"/>
	<ellipse id="path2897-59" class="st18" cx="669.8" cy="801.8" rx="9.8" ry="10.4"/>
	<ellipse id="path2897-4" class="st18" cx="721.7" cy="790.2" rx="9.8" ry="10.4"/>
	<ellipse id="path2897-9" class="st18" cx="439.3" cy="603.2" rx="9.8" ry="10.4"/>
	<ellipse id="path2897-16" class="st18" cx="491.1" cy="607.8" rx="9.8" ry="10.4"/>
	<ellipse id="path2897-05" class="st18" cx="550.8" cy="613.6" rx="9.8" ry="10.4"/>
	<ellipse id="path2897-67" class="st18" cx="607.5" cy="607.8" rx="9.8" ry="10.4"/>
	<ellipse id="path2897-3" class="st18" cx="641.5" cy="636.5" rx="9.8" ry="10.4"/>
	<ellipse id="path2897-03" class="st18" cx="678.7" cy="634.2" rx="9.8" ry="10.4"/>
	<ellipse id="path3671-5" class="st20" cx="371.8" cy="672.5" rx="14.2" ry="17.9"/>
	<ellipse id="path3671-3" class="st20" cx="440.2" cy="670.2" rx="14.2" ry="17.9"/>
	<ellipse id="path3671-7" class="st20" cx="529.3" cy="669.1" rx="14.2" ry="17.9"/>
	<ellipse id="path3671-6" class="st20" cx="614.4" cy="677.2" rx="14.2" ry="17.9"/>
	<ellipse id="path3671-8" class="st20" cx="683.5" cy="698.9" rx="14.2" ry="17.9"/>
	<ellipse id="path3671-9" class="st20" cx="317" cy="909.4" rx="14.2" ry="17.9"/>
	<ellipse id="path3671-68" class="st20" cx="390.4" cy="924.4" rx="14.2" ry="17.9"/>
	<ellipse id="path3671-72" class="st20" cx="491.1" cy="932.5" rx="14.2" ry="17.9"/>
	<ellipse id="path3671-39" class="st20" cx="568.4" cy="939.5" rx="14.2" ry="17.9"/>
	<ellipse id="path3671-90" class="st20" cx="650.5" cy="932.5" rx="14.2" ry="17.9"/>
	<ellipse id="path3671-1" class="st20" cx="728.5" cy="949.7" rx="14.2" ry="17.9"/>
	<ellipse id="path3671-93" class="st20" cx="728.5" cy="950.8" rx="14.2" ry="17.9"/>
	<path id="path5179" class="st21" d="M593.4,335.4c-2.4-2.1-8.9-3.6-12.4-2.8l-2.4,0.5l1.9-4.7c6.9-17.4,7-39.4,0.3-58.7
		c-2.7-7.7-2.5-7.9,9.1-6.4l8.1,1l2,10.1c4.7,23.3,4,44.5-1.8,58.3C596.3,337.4,595.9,337.6,593.4,335.4L593.4,335.4z"/>
	<path id="path5185" class="st22" d="M557.4,566.2c-7.6-2.1-15.7-5.7-19.4-8.7l-2.8-2.3h2.5c1.4,0,3.7-1.3,5.2-2.8
		c2.2-2.3,2.7-3.7,2.7-8.2c0-7.4-3.3-11-9.9-11c-6.7,0-9.9,3.6-9.9,11c0,4.5,0.5,5.9,2.7,8.2c1.5,1.5,3.3,2.8,4,2.8
		c1.6,0,1.8,2.7,0.4,5.7c-3.1,7-20.1,5.9-41.6-2.7c-5.7-2.3-6.5-2.8-4.1-2.9c1.7-0.1,4.2-1.3,5.7-2.9c2.2-2.3,2.7-3.7,2.7-8.2
		c0-7.4-3.3-11-9.9-11s-9.9,3.6-9.9,11c0,4.5,0.4,5.9,2.7,8.3c2.4,2.5,2.6,3.2,1.7,5.7c-2.8,7.5-13.3,7.9-31.2,1.1
		c-12.8-4.9-15.3-5-18.6-1.2c-5.1,5.7-13.9,5.3-24.8-1.2c-3.8-2.3-6.9-4.9-6.9-5.8c0-2.3-1.5-2.1-3,0.5c-3.6,6.2-12.7,7.5-25.7,3.6
		c-11.3-3.4-12-3.9-12-8.3c0.1-16.8,11.8-44.3,32.1-75.4c12.4-18.9,11.4-18.1,19.9-16.4c11.9,2.3,110.2,1.8,154.9-0.8l37.2-2.2
		l3.5,4.1c18.8,21.9,74.2,80.8,85.4,90.8c4,3.6,7.2,7.1,7.1,7.7c-0.5,2.7-6.2,4.5-15.2,5l-9.5,0.5l2.4-3.1
		c3.5-4.6,3.3-12.5-0.3-16.3c-3.5-3.7-10.6-3.9-14.2-0.4c-2.8,2.7-4,8.4-2.7,12.6c0.7,2.3,0.4,3.3-1.6,5.3
		c-5.5,5.6-12.5,6.5-22.1,2.8c-8.1-3.1-9.3-4.8-5.7-8.5c2.2-2.4,2.7-3.7,2.7-8.2c0-7.4-3.3-11-9.9-11c-6.7,0-9.9,3.6-9.9,11
		c0,4.5,0.5,5.9,2.7,8.2c1.7,1.8,3.8,2.8,5.9,2.8c1.8,0,3.3,0.5,3.3,1.1c0,1.7-4.5,5.6-8.2,7.1c-4.5,1.8-18.2,0.7-24.4-1.9l-4.7-2
		l2.9-0.9c4.4-1.4,6.5-5,6.5-11c0-7.1-3.3-10.8-9.9-10.8c-6.7,0-9.9,3.6-9.9,11c0,4.5,0.4,5.9,2.7,8.3c2.4,2.6,2.6,3.2,1.6,5.6
		C577.7,567.2,568,569.1,557.4,566.2L557.4,566.2z M443.7,549c2.2-2.3,2.7-3.7,2.7-8.2c0-7.4-3.3-11-9.9-11s-9.9,3.6-9.9,11
		s3.3,11,9.9,11C439.9,551.8,441.6,551.1,443.7,549z M395.4,543.2c2.2-2.3,2.7-3.7,2.7-8.2c0-7.4-3.3-11-9.9-11s-9.9,3.6-9.9,11
		s3.3,11,9.9,11C391.7,546,393.4,545.3,395.4,543.2z"/>
	<path id="path5331" class="st23" d="M543.6,628.5c-8.2-2.1-17.3-6-17.3-7.4c0-0.6-0.7-1.1-1.5-1.1s-1.5,0.8-1.5,1.7
		c0,3.5-5.9,5.7-15.2,5.5c-8.8-0.2-22.1-3.6-22.8-5.8c-0.2-0.6-1.9-0.1-3.9,1.1c-4.4,2.6-8.7,2.7-16.4,0.4c-8.7-2.6-14.2-6-13.4-8.3
		c0.5-1.5,0.2-1.7-1.8-1c-5.2,1.8-10.8,2-19.1,0.7c-4.8-0.8-9.2-1.9-9.8-2.5c-0.7-0.7-2.5-0.4-4.9,0.8c-4.5,2.3-17.8,1.6-27.3-1.4
		c-3.2-1-6.5-1.8-7.3-1.7s-5.1,0.4-9.6,0.8c-6.4,0.5-10,0.2-17.1-1.8c-4.9-1.4-10.2-3.1-11.6-3.9l-2.6-1.4l6.5-23.7
		c3.5-13,6.6-23.9,6.7-24.1c0.1-0.2,3.6,0.5,7.7,1.6c9.8,2.6,19,2,23-1.5l2.9-2.6l5.2,3.4c11.7,7.7,22.7,8.9,30,3.2
		c2.2-1.7,4.6-3.1,5.5-3.1s6.7,1.8,13,4.1c19,6.8,27.1,6.8,32.7,0l3.2-3.9l9.2,3.4c24.1,8.9,40.8,9.2,44.1,0.6l1.1-2.9l4.7,2.8
		c12.5,7.5,32.2,10.4,38.7,5.8c1.7-1.2,3.6-3.4,4.3-4.8c1.1-2.5,1.4-2.5,3.9-1c7.4,4.5,24.4,6.6,31.3,3.8c1.8-0.7,4.7-2.5,6.4-4
		l3.1-2.7l5.2,2.8c9.8,5.3,20.2,5.3,26.7,0c3.1-2.5,4-2.7,7.6-1.7c2.3,0.6,9,1.5,14.9,1.9s11.4,1.3,12.2,2
		c3.7,3.4,23.5,45.7,23.5,50.2c0,2.3-7.8,6-12.9,6c-8.1,0-10-2.4-4.7-6c5.5-3.7,6.4-11.9,2-17.2c-2.4-2.9-3.6-3.4-7.9-3.4
		s-5.5,0.5-7.9,3.4c-3.9,4.7-3.9,10.5,0,15.2c1.7,2,3.9,3.4,5.5,3.4c3.4,0,2.8,2.2-1.5,5.1c-4.5,3.1-19.5,4-24.7,1.4
		c-4.3-2.1-4.5-3.5-1.1-6.9c1.7-1.7,2.7-4.2,3.1-7.4c0.5-4.3,0.2-5.3-2.4-8.4c-2.6-3-3.7-3.5-8-3.5s-5.5,0.5-7.9,3.4
		c-6.1,7.2-1.8,18.6,6.9,18.6c3.6,0,3.9,0.2,3,2.2c-3.4,7.5-27.3,8.5-35.2,1.4c-2.1-1.8-2.3-3-2.3-9.3c0.1-6.5-0.2-7.6-2.7-10.6
		c-2.4-2.8-3.6-3.3-7.8-3.3c-4.3,0-5.5,0.5-7.9,3.4c-3.7,4.3-3.9,10.1-0.5,14.7c1.9,2.6,3.4,3.3,8.1,3.9l5.7,0.7l-4.4,2.4
		c-2.4,1.3-7.4,3.1-11,3.8c-7.9,1.6-20.4,1.1-21-1s-2-1.7-2.6,0.8c-0.3,1.2-2,2.8-3.6,3.5C565.9,630.9,551.6,630.5,543.6,628.5
		L543.6,628.5z M558.1,622c1.7-1.8,2.7-4.2,3.1-7.5c0.5-4.3,0.2-5.3-2.4-8.4c-2.6-3-3.7-3.5-8-3.5s-5.5,0.5-7.9,3.4
		c-2.1,2.5-2.9,4.5-2.9,7.6c0,6.6,4.3,11,10.6,11C554.3,624.6,556.2,623.9,558.1,622z M498.5,616.2c1.7-1.8,2.7-4.2,3.1-7.5
		c0.5-4.3,0.2-5.3-2.4-8.4c-2.6-3-3.7-3.5-8-3.5s-5.5,0.5-7.9,3.4c-2.1,2.5-2.9,4.5-2.9,7.6c0,6.6,4.3,11,10.6,11
		C494.7,618.8,496.5,618.2,498.5,616.2z M446.6,611.6c1.7-1.8,2.7-4.2,3.1-7.5c0.5-4.3,0.2-5.3-2.4-8.4c-2.6-3-3.7-3.5-8-3.5
		s-5.5,0.5-7.9,3.4c-2.1,2.5-2.9,4.5-2.9,7.6c0,6.6,4.3,11,10.6,11C442.8,614.2,444.7,613.5,446.6,611.6L446.6,611.6z M395.7,604.7
		c1.7-1.8,2.7-4.2,3.1-7.5c0.5-4.3,0.2-5.3-2.4-8.4c-2.6-3-3.7-3.5-8-3.5s-5.5,0.5-7.9,3.4c-2.1,2.5-2.9,4.5-2.9,7.6
		c0,6.6,4.3,11,10.6,11C392,607.3,393.8,606.6,395.7,604.7L395.7,604.7z"/>
	<path id="path5335" class="st24" d="M392.3,703.1c-3-0.6-8-2.6-11.2-4.5c-5.8-3.3-6-3.4-11.7-1.8c-15.1,4.1-36.5,4.4-45,0.5
		l-2.4-1.1l2.9-5.5c4.2-8.1,15.7-36.3,23.8-58.7l7.2-19.6l11.2,0.3c6.2,0.2,11.7-0.1,12.4-0.7c0.7-0.6,4.1-0.2,8.3,1.1
		c9.6,2.9,22,3.9,27.5,2.2c3.3-1,5.7-1,9.1-0.1c2.6,0.7,9.2,1.4,14.7,1.6c7.1,0.2,10.7,0.9,12.4,2.2c6.9,5.3,23.1,9,29.1,6.7
		c2.8-1.1,4.7-0.9,11.2,1.1c13.8,4.2,31.4,3,32.9-2.3c0.2-0.7,2.1-0.2,4.7,1.3c7.3,4.1,21.7,7.1,32.4,6.6c6-0.3,10-1,11-2
		c1.1-1.1,5.3-1.6,14.1-1.8c13.4-0.3,21.6-2.5,27.4-7.4c2.3-2,3-2.1,3.4-0.8c0.3,0.9,3.1,2.7,6.2,4.1c9.1,4,25,3.2,31.2-1.6
		c1.9-1.5,2.7-1.5,6-0.1c4.6,1.9,17,2.2,22.4,0.4c2.2-0.7,5-2.2,6.4-3.3c2.1-1.7,2.6-1.8,3.7-0.4c0.7,0.9,3,1.6,5.1,1.6
		c3.8,0,3.9,0.2,9.4,10.7c6.9,13.1,12.4,26.8,14.6,36.4c2.9,12.4,0.8,16.1-12.1,21c-16.1,6.2-43.9,8.4-53.1,4.2
		c-6.9-3.1-8.2-3.5-7.5-2.2c0.8,1.5-6.9,5.4-14.5,7.3c-3.2,0.8-10.5,1.5-16.1,1.5c-11.4,0.1-18.5-2-23.5-7l-2.9-2.9l-5.2,2.3
		c-15,6.6-47.9,8.1-58,2.6c-6.3-3.4-8-3.3-20.2,1.1c-27.5,10-41.5,9-57.1-4c-1.7-1.5-3.3-1.2-13.7,2.8
		C418.6,702.6,403.2,705.3,392.3,703.1L392.3,703.1z M621.6,693.6c4.9-3.3,7.4-9,7.4-16.4c0-3.4-0.7-7.5-1.8-9.8
		c-2.2-4.9-8.2-9.2-12.9-9.2c-4.6,0-10.7,4.3-12.9,9.2c-1.1,2.4-1.8,6.4-1.8,9.8c0,3.4,0.7,7.5,1.8,9.8c2.2,4.9,8.2,9.2,12.9,9.2
		C616.2,696.2,619.5,695,621.6,693.6L621.6,693.6z M379,689c4.9-3.3,7.4-9,7.4-16.4c0-3.4-0.7-7.5-1.8-9.8
		c-2.2-4.9-8.2-9.2-12.9-9.2c-4.6,0-10.7,4.3-12.9,9.2c-1.1,2.4-1.8,6.4-1.8,9.8c0,3.4,0.7,7.5,1.8,9.8c2.2,4.9,8.2,9.2,12.9,9.2
		C373.7,691.6,376.9,690.4,379,689L379,689z M447.5,686.7c4.9-3.3,7.4-9,7.4-16.4c0-3.4-0.7-7.5-1.8-9.8c-2.2-4.9-8.2-9.2-12.9-9.2
		c-4.6,0-10.7,4.3-12.9,9.2c-1.1,2.4-1.8,6.4-1.8,9.8c0,3.4,0.7,7.5,1.8,9.8c2.2,4.9,8.2,9.2,12.9,9.2
		C442.1,689.3,445.4,688.1,447.5,686.7z M536.5,685.5c4.9-3.3,7.4-9,7.4-16.4c0-3.4-0.7-7.5-1.8-9.8c-2.2-4.9-8.2-9.2-12.9-9.2
		c-4.6,0-10.7,4.3-12.9,9.2c-1.1,2.4-1.8,6.4-1.8,9.8c0,3.4,0.7,7.5,1.8,9.8c2.2,4.9,8.2,9.2,12.9,9.2
		C531.1,688.1,534.4,686.9,536.5,685.5z M702.8,684.4c4.9-3.3,7.4-9,7.4-16.4c0-3.4-0.7-7.5-1.8-9.8c-2.2-4.9-8.2-9.2-12.9-9.2
		c-4.6,0-10.7,4.3-12.9,9.2c-1.1,2.4-1.8,6.4-1.8,9.8s0.7,7.5,1.8,9.8c2.2,4.9,8.2,9.2,12.9,9.2
		C697.4,686.9,700.7,685.8,702.8,684.4L702.8,684.4z"/>
	<path id="path5339" class="st25" d="M551.3,804c-7.4-1.2-26-6.6-31.4-9.1l-5.9-2.8l-3.9,2.2c-6.5,3.7-16.1,5.1-29.7,4.3
		c-12.9-0.8-28.9-4.3-31.1-6.9c-1.1-1.3-2.1-1.1-5.9,1.1c-6.9,4-17.8,5.4-30.4,3.9c-17.7-2.1-37.2-8.8-34.6-11.9
		c1.7-2,1.4-3.5-0.6-2.7c-9.6,4.4-28.7,5.6-41.1,2.5c-14.7-3.6-24.6-11.5-24.6-19.6c0-9.7,6.9-27.7,18.8-49.1l7.3-13.1l8.2-0.4
		c4.5-0.2,12.7-1.3,18.2-2.3l10-1.9l5.7,3c13.6,7.2,31,6.4,56-2.8c5.2-1.9,10.7-3.4,12.3-3.4c1.6,0,5.7,1.8,9.2,3.9
		c14.3,8.9,27.3,8.5,57.2-2.1c7.6-2.7,7.9-2.7,11.2-0.7c5.5,3.3,13,4.6,25.5,4.6c13,0,22.1-1.3,33.4-4.8l7.5-2.3l2.6,2.4
		c9,8.4,39.4,8.4,53.3,0c3.3-2,3.9-2,8.3-0.3c10.2,3.8,38.5,1.6,54.6-4.3c3.2-1.2,6.1-1.7,6.4-1.3c8.3,13.7,12.8,22.8,25.3,50.7
		c10.5,23.3,10.9,26.1,5.5,32.2c-4.1,4.5-14.5,8.8-20.6,8.4c-3.5-0.2-4.5,0.3-6.7,3.4c-6.1,8.6-24.3,11.4-50.3,7.9l-13.1-1.8l-4,4
		c-6.9,6.9-15,9.2-32.9,9c-12.2-0.1-16.7-0.6-22.9-2.6c-4.3-1.4-8.1-3.1-8.5-3.8c-0.5-0.9-1.5-0.6-3.4,1.2c-4.4,4.1-11.6,6-22.4,5.8
		C558.6,804.6,552.9,804.3,551.3,804L551.3,804z M562.2,790.5c2.3-2.3,2.7-3.7,2.7-8.2c0-7.4-3.4-11-10.3-11s-10.3,3.6-10.3,11
		s3.4,11,10.3,11C558.3,793.3,560.1,792.6,562.2,790.5L562.2,790.5z M624.8,787.9c9.7-8.5,9.7-23.6,0-32.1c-4-3.5-16.9-3.5-20.9,0
		c-8.8,7.7-9.8,21.7-2.1,30.2c3.6,3.9,6.7,5,13.8,4.6C620.4,790.4,622.9,789.7,624.8,787.9L624.8,787.9z M485.9,786.8
		c9.7-8.5,9.7-23.6,0-32.1c-4-3.5-16.9-3.5-20.9,0c-8.8,7.7-9.8,21.7-2.1,30.2c3.6,3.9,6.7,5,13.8,4.6
		C481.5,789.3,484,788.5,485.9,786.8L485.9,786.8z M409.6,782.4c2.3-2.3,2.7-3.7,2.7-8.2c0-7.4-3.4-11-10.3-11s-10.3,3.6-10.3,11
		s3.4,11,10.3,11C405.7,785.2,407.5,784.5,409.6,782.4z M689.4,778.9c2.3-2.3,2.7-3.7,2.7-8.2c0-7.4-3.4-11-10.3-11
		c-6.9,0-10.3,3.6-10.3,11s3.4,11,10.3,11C685.5,781.7,687.3,781.1,689.4,778.9L689.4,778.9z M357.8,771.8c4.7-3.2,8-9.8,8-16
		c0-5.8-3.7-13.1-8.2-16.3c-11.7-8.1-27.8,1-27.9,15.9C329.6,770.9,345.7,780.2,357.8,771.8L357.8,771.8z M741.2,767.4
		c2.3-2.3,2.7-3.7,2.7-8.2c0-7.4-3.4-11-10.3-11c-6.9,0-10.3,3.6-10.3,11s3.4,11,10.3,11C737.3,770.2,739.1,769.5,741.2,767.4
		L741.2,767.4z"/>
	<path id="path5485" class="st26" d="M515.7,964.8c-19.3-4.2-43.6-14.4-51.6-21.6l-4.6-4.1l0.9,5.5c0.7,4.4,0.3,6.2-2.1,8.7
		c-2.5,2.7-5.4,3.3-18.4,3.8c-17.5,0.6-39.8-3.1-66.3-11l-16.3-4.9l-6.4,3.4c-16.1,8.4-37-0.9-61.9-27.6c-7.3-7.9-8.1-13-3.6-24.5
		c2.7-7,11.2-22.2,16.9-30.3l3.2-4.5l11.8,6.1c11,5.7,12.7,6.1,26.3,6.4c11.1,0.2,16.2,1,21.6,3.6c19.5,9.3,48.9,11.2,57.5,3.7
		c4.2-3.7,4.4-3.7,9.3-0.9c26.5,15.1,61.9,18.5,67.6,6.5c1.2-2.5,1.7-2.5,5.3-0.4c9.5,5.7,37.8,12.6,51.6,12.6
		c5.1,0,9.7-1.1,13.3-3.3l5.5-3.3l11.1,3.3c27.9,8.4,49.4,8,65.7-1.1c7.3-4.1,8.9-4.3,31.9-4.6c25.7-0.3,36.7-2.7,50.3-10.9
		c3.2-1.9,11.9-5.9,19.4-8.9s16.4-7.3,19.7-9.6l6-4.2l5.7,6.7c11.5,13.6,26,46.5,24.2,54.9c-1.3,6.1-8.9,15.2-16.4,19.7
		c-8.9,5.4-24.2,9-35.6,8.6c-8.2-0.3-9.7,0.1-15,4.7c-10.6,9-17.8,11-41,11c-15.7,0-23.3-0.7-31.1-3.1c-12.5-3.7-13.4-4.3-10.9-6.6
		c10.6-9.5,7.7-30.7-4.6-34.3c-16.4-4.8-26.7,23.3-12.5,34.3c3.2,2.5,3.2,2.7,1,5.7c-6.9,9-34.2,14.4-58.8,11.6
		c-8.4-1-16.3-2.4-17.4-3.2c-1.3-0.9-4.9-0.3-9.3,1.5C548.9,967.6,530.2,967.9,515.7,964.8z M578.1,953.9c7.3-8.1,7.2-21.1-0.3-29.4
		c-2.6-2.9-5.1-3.9-9.8-3.9c-5.3,0-6.8,0.8-10.3,5.3c-7.3,9.6-4.6,26.8,4.8,31.5C566.9,959.7,574.5,958,578.1,953.9L578.1,953.9z
		 M496.3,950.1c5.2-2.6,10.3-11,10.4-17c0-6.2-4.2-14.9-8.4-17.5c-6.6-4-12.1-3-17.3,3.2c-3.9,4.6-4.7,6.8-4.7,12.7
		c0,9.3,4.1,17.1,10,19.2c2.5,0.9,4.7,1.6,4.9,1.7C491.4,952.4,493.7,951.4,496.3,950.1L496.3,950.1z M398.4,940.7
		c3.6-2.1,7.3-10.6,7.3-16.7c0-9.7-7.6-18.9-15.5-18.9c-4.6,0-12,5.9-13.6,10.7C370.7,934.2,383.8,949.2,398.4,940.7z M747.4,936.9
		c5.1-3.1,8.3-10.2,8.3-18.6c0-5-1-7.9-4.3-12.3c-3.8-5.1-5.1-5.8-10.8-5.8c-5.4,0-7.2,0.8-10.3,4.7c-7.4,9.1-6.1,25.2,2.5,31.4
		C737.9,940,742.1,940.2,747.4,936.9L747.4,936.9z M327,923.4c3.3-3.5,4.5-6.3,4.9-11.8c1.6-18.2-14.6-28.2-25.2-15.6
		c-3.8,4.5-4.7,6.8-4.7,12.4c0,12.5,5.4,19.6,14.8,19.6C321.3,928,323.7,926.9,327,923.4z"/>
	<path id="path16374" class="st27" d="M401.4,454.1c8.3-5.5,162.9,8.3,197.8-5.5c0-8.3,1.7-38.7,1.7-38.7s-167.9,47-204.5,16.6
		C403.1,426.5,401.4,454.1,401.4,454.1L401.4,454.1z"/>
	<path id="path8747" class="st28" d="M417.9,442.2c3.7-0.1,7.4-0.6,11.1-0.9c2.1,0.3,1.7,0.1,3.7,1c0.7,0.3,2.5,1.4,1.9,1.1
		c-20-12.5-11.9-7.7-7.8-4.3c5.9,5.6,12.4,11.1,20.1,13.2c3.5,0.5,7.2,1,10.7,0.3c2.7-0.9,5.6-1.6,8.1-3.1c1.9-1.4,3.9-1.7,6.1-1.4
		c4.5,2.8,10.9,6.6-9.9-6.1c-0.4-0.2,0.7,0.5,1.1,0.7c0.8,0.6,1.4,1.3,2,1.9c5,5.2,11.2,7.8,17.6,11.3c0.4,0.2,3.3,0.7,3.7,0.7
		c4.6,0.3,8.9-1.5,12.9-3.7c3.4-1.9,6.8-3.9,10.5-5c3-0.9,4.4,0.1,6.9,1.7c-3.9-2.4-7.9-4.9-11.8-7.2c-0.4-0.2,0.7,0.5,1,0.7
		c4.6,2.9,9.2,5.8,13.9,8.5c1,0.6,2.6,0.7,3.7,0.9c3.7,0.7,7-0.4,10.4-1.9c3.4-1.6,6.6-3.7,10.2-4.8c1.4-0.3,3.1-0.5,4.4,0.2
		c0.5,0.3,1,0.7,1.5,1.1c2.1,1.1,4.6,1.1,7,1.3c3.5,0.4,6.8-0.4,10.2-1.4c2.8-1.2,5.5-2.9,8.3-4.1c1.2-0.3,2.4,0.1,3.4,0.8
		c0.3,0.2,1.1,0.8,0.8,0.6c-4-2.4-8-4.9-11.9-7.3c6.3,4.6,12.6,10.8,20.4,9.5c2.5-0.6,4.5-2.1,6.3-4l-12.8-8.4l0,0
		c-1.7,1.6-3.4,2.8-5.7,3.1c-1.3,0-2.5,0-3.8-0.5c-0.4-0.2-1.6-0.8-1.2-0.6c7.8,5,16.1,9.9,10.7,6.7c-4.6-2.9-9.1-5.8-13.7-8.7
		c-1.5-1-3.3-0.8-4.9-0.2c-2.7,1.3-5.3,3-8.1,4c-3.3,0.9-6.6,1.3-9.9,0.9c-2.3-0.2-4.6-0.5-6.6-1.9c-2.1-1.1-4.3-0.9-6.6-0.2
		c-3.5,1.3-6.7,3.4-10.2,4.9c-3.3,1.3-6.6,1.9-10.1,1.1c-0.9-0.2-1.4-0.3-2.3-0.7c-0.4-0.2-1.5-0.8-1.1-0.6
		c3.9,2.5,7.8,4.9,11.8,7.3c0.3,0.2-0.7-0.4-1-0.7c-4.6-2.9-9.2-5.8-13.8-8.7c-2.5-1.3-5-1.7-7.6-0.6c-3.7,1.3-7.1,3.4-10.5,5.3
		c-3.9,2-8,3.6-12.4,2.8c-0.6-0.1-1.2-0.2-1.8-0.4c-0.6-0.2-2.3-0.9-1.7-0.6c3.7,2.5,7.5,4.7,11.3,7.2c1.3,0.8-4.6-2.8-3.3-2.5
		c-5.2-5.7-11.7-10.8-19.1-12.2c-2.4,0.1-4.5,0.7-6.5,2.1c-2.4,1.3-5.1,2.1-7.8,2.7c-3.4,0.3-7,0-10.3-0.9
		c-5.4-2.4-2.2-1.1,10.2,6.7c0.4,0.3-0.8-0.5-1.2-0.8c-1.2-0.9-1.3-1.2-2.4-2.2c-0.4-0.4-0.8-0.7-1.2-1.1
		c-5.2-4.9-11.5-7.9-17.6-11.5c-1.1-0.7-2.9-1.2-4.2-1.4c-0.6-0.1-1.3,0-1.9-0.1c-3.7,0.3-7.4,0.8-11.1,0.7L417.9,442.2L417.9,442.2
		z"/>
	<ellipse id="path5591-5-8-0-24" class="st29" cx="589" cy="302.6" rx="2.7" ry="2.9"/>
	<ellipse id="path5591-5-8-0-7" class="st29" cx="572.3" cy="312.2" rx="2.7" ry="2.9"/>
	<ellipse id="path5591-5-8-0-4" class="st29" cx="581.8" cy="322.9" rx="2.7" ry="2.9"/>
	<ellipse id="path5591-5-2" class="st30" cx="577.2" cy="299.2" rx="2.8" ry="2.9"/>
	<ellipse id="path5591-5-69" class="st29" cx="600" cy="314.2" rx="2.7" ry="2.9"/>
	<ellipse id="path5591-5-69-8" class="st29" cx="570.3" cy="315.8" rx="2.7" ry="2.9"/>
	<ellipse id="path5591-5-25" class="st29" cx="592.6" cy="309.7" rx="2.7" ry="2.9"/>
	<path id="path5177" class="st31" d="M396.5,329.5c-5.4-17.1-3.4-39.9,5.5-64.1l3.4-9.1h8.7c4.8,0,9.3,0.3,10,0.6
		c1,0.5,0.4,2.4-3,9.1c-2.4,4.7-5.4,12.5-6.7,17.3c-2.1,7.8-2.4,10.4-2.3,21.6c0.1,9,0.5,14.1,1.5,17.6c1.8,6.1,1.9,5.7-0.9,5.5
		c-5.2-0.4-8,0.3-11,3c-1.8,1.5-3.3,2.8-3.5,2.8C397.9,333.7,397.2,331.8,396.5,329.5L396.5,329.5z"/>
	<ellipse id="path5591-5-8-0-44" class="st29" cx="399.1" cy="308.3" rx="2.7" ry="2.9"/>
	<ellipse id="path5591-5-8-0-3" class="st29" cx="391.4" cy="321.2" rx="2.7" ry="2.9"/>
	<ellipse id="path5591-5-8-1" class="st30" cx="395.7" cy="293.5" rx="2.8" ry="2.9"/>
	<ellipse id="path5591-5-8-19" class="st29" cx="408.9" cy="309.6" rx="2.7" ry="2.9"/>
	<ellipse id="path5591-5-8-0-2" class="st29" cx="397.9" cy="325.2" rx="2.7" ry="2.9"/>
	<ellipse id="path5591-5-8-0" class="st29" cx="402.5" cy="314.9" rx="2.7" ry="2.9"/>
	<ellipse id="path5591-5-8-01" class="st29" cx="409.3" cy="321" rx="2.7" ry="2.9"/>
	<path id="path13059" class="st32" d="M442.6,435.9c-40-4.8-44.5-5.8-47.7-10.3c-1.7-2.4-4.5-9.8-6.3-16.5
		c-4.1-15.6-1.4-35,7.7-54.8c7.6-16.7,11.3-19.1,27.3-17.9c19.8,1.5,44.2,14.9,76.7,42.2c19.3,16.2,47.7,46.7,45.5,48.8
		c-0.9,0.9-8.6,3.2-17,5.2C511.6,436.6,463.9,438.5,442.6,435.9L442.6,435.9z"/>
	<ellipse id="path5591-5-8-0-44-8-83" class="st33" cx="460.5" cy="393.1" rx="7.1" ry="6.8"/>
	<ellipse id="path5591-5-8-0-44-8-10" class="st33" cx="434.6" cy="407.1" rx="7.1" ry="6.8"/>
	<ellipse id="path5591-5-8-0-44-8-5" class="st33" cx="406.9" cy="394.2" rx="7.1" ry="6.8"/>
	<ellipse id="path5591-5-8-0-44-8-1" class="st33" cx="437" cy="372.8" rx="7.1" ry="6.8"/>
	<ellipse id="path5591-5-8-0-44-8-8" class="st33" cx="414.6" cy="358.8" rx="7.1" ry="6.8"/>
	<path id="path8883-4-8" class="st34" d="M411.5,332.3c0,0-22.8-34.6-31.1-15.7c1.4-1.6-9.7,18.9-1.4,27.5
		C375.6,339.4,409.4,347.3,411.5,332.3z"/>
	<path id="path8883-3-4-3" class="st35" d="M409.5,330.9c0,0,22.7-34.6,31-15.7c-1.4-1.6,9.6,18.9,1.4,27.5
		C445.3,338,411.6,345.9,409.5,330.9z"/>
	<ellipse id="path9563-94-6" class="st36" cx="413.1" cy="329.6" rx="6.8" ry="6.2"/>
	<path id="path15070" class="st37" d="M476.3,436.8c-2.9-0.4-5.9-1.9-6.5-3.3c-1.7-3.5,19.4-37.8,34.9-56.6
		c26.8-32.6,60.4-50.6,79.3-42.6c9.8,4.1,46.9,59.4,49.7,74c1.2,6.4,0.8,7.7-2.8,8.6c-17.8,4.5-88.2,17.6-102.8,19.2
		C510.3,438.1,486.7,438.4,476.3,436.8L476.3,436.8z"/>
	<ellipse id="path5591-5-8-0-44-8-4" class="st33" cx="587.2" cy="406.5" rx="7.1" ry="6.8"/>
	<ellipse id="path5591-5-8-0-44-8-06" class="st33" cx="565.4" cy="393.6" rx="7.1" ry="6.8"/>
	<ellipse id="path5591-5-8-0-44-8-03" class="st33" cx="523.5" cy="384.6" rx="7.1" ry="6.8"/>
	<ellipse id="path5591-5-8-0-44-8-3" class="st33" cx="548.3" cy="372.3" rx="7.1" ry="6.8"/>
	<ellipse id="path5591-5-8-0-44-8-0" class="st33" cx="524.7" cy="406.5" rx="7.1" ry="6.8"/>
	<path id="path8883-4" class="st38" d="M587.5,335.6c0,0-17.4-37.3-28.4-19.8c1.6-1.4-12.4,17.3-5.5,27
		C550.9,337.7,583.2,350.1,587.5,335.6z"/>
	<path id="path8883-3-4" class="st39" d="M586.9,334.1c0,0,27.7-31.1,33-11.3c-1.1-1.7,6.7,20-2.8,27.4
		C621.3,345.9,586.7,349.1,586.9,334.1L586.9,334.1z"/>
	<ellipse id="path9563-94" class="st36" cx="589" cy="332.4" rx="6.8" ry="6.2"/>
	<ellipse id="path5591-5-8-0-44-8-6" class="st33" cx="575.4" cy="368.9" rx="7.1" ry="6.8"/>
	<ellipse id="path5591-5-8-47-1-5-4" class="st40" cx="810.2" cy="342.5" rx="4.3" ry="4.5"/>
	<ellipse id="path8749" class="st41" cx="817.5" cy="365.5" rx="0.5" ry="0.5"/>
	<path id="path8881" class="st42" d="M866,423.5c2.5,1,13,7,21,2c-3,1.5,23.5-34.5,19.5-44c1-1-20.5-0.5-20.5-0.5L866,423.5z"/>
	<path id="path8879" class="st42" d="M812,353c-3,1.5-31,22.5-24,34c-0.5-2,47,38,80.5,38c-2-1,30-25.5,23.5-39
		C890.5,384.5,812,353,812,353z"/>
	<path id="path8913" class="st42" d="M823,343.5c1-2.5,24-65,60-46.5c-2-1.5,45,13.5,13.5,66.5c-1,2-8.5-2.5-8.5-2.5s31-38-0.5-53.5
		c4,1-10.5-6.5-10.5-6.5s-23.5-9.5-46,44.5C831.5,346,823,343.5,823,343.5z"/>
	<path id="path8877" class="st42" d="M832.5,334c0,0,29.5,33,70.5,21.5c-1-0.5,21.5,28,3.5,29c2-2-20.5,11-31-2
		c0.5-1-30.5,5-29.5-11c0,1-35.5-1.5-30-17c0.5,3-31.5-5-15-18C799.5,338,822,324.5,832.5,334z"/>
	<ellipse id="path5591-5-8-47-1-5-04" class="st40" cx="813.1" cy="343" rx="4.3" ry="4.5"/>
	<path id="path9062" class="st43" d="M893.7,354.2c4.1-6.4,7.3-14.6,8.3-21.1c1.6-10.3-2.3-19.1-10.7-24.3c-1.1-0.7-2.4-1.7-3.1-2.2
		c-0.6-0.6-3.4-2.3-6.1-3.8c-4.6-2.5-5.2-2.7-8.9-2.9c-3.2-0.2-4.7,0-7.2,0.9c-10.2,3.4-20.4,13.9-28.8,29.8l-2.4,4.6l-1.8-1.6
		c-1-0.9-2.2-1.8-2.7-2.1c-0.9-0.5-0.7-0.9,2.5-6.7c13.6-23.9,29.9-34.4,44.8-29.1c10.7,3.8,14.1,5.8,19.2,10.8c6,6,9.1,13,9.6,21.7
		c0.4,7.7-1,14.6-4.7,23.3l-1.7,4.1l-3.4,0.6c-1.9,0.3-3.7,0.6-4,0.6S892.7,355.6,893.7,354.2L893.7,354.2z"/>
	<path id="path9064" class="st44" d="M894.2,354.4c6.1-9.6,9.5-21.8,8.3-29.4c-1.2-7.3-4.7-12.3-12.8-17.9
		c-9.9-6.9-15.2-8.7-21.7-7.2c-10.5,2.3-21.9,13.3-30.6,29.4c-1.4,2.5-2.7,4.7-2.8,4.8s-1.2-0.6-2.3-1.5l-2-1.7l1.2-2.6
		c2.3-4.9,9.9-15.7,14.3-20.4c7.1-7.5,13.5-11.4,20.7-12.6c4.6-0.8,8-0.2,15.5,2.8c10,3.9,16.7,9.7,20.4,17.5
		c2.6,5.5,3.2,8.5,3.2,15.5c0,6.9-1.1,11.8-4.2,19.4c-2,4.9-1.9,4.8-6.4,5.5l-2.1,0.3L894.2,354.4z"/>
	<path id="path9135" class="st44" d="M860.5,423.6c-17.3-3-38.2-13.5-66.3-33.5c-4.9-3.5-6.2-4.6-6.4-5.8c-0.4-1.9,0.8-6,2.7-9.3
		c2.1-3.6,7.8-10,12.5-14c6.2-5.3,6.9-5.7,9.7-5.4c2.1,0.2,2.4,0.4,2.1,1.2c-0.5,1.6,0.7,4.9,2.6,7c3.6,4,14.1,7.7,23.5,8.3l4.6,0.3
		v1.5c0,3.2,3.2,6.5,7.7,8c3.4,1.2,10.2,1.7,16.4,1.4l5.3-0.3l1.7,1.6c1,0.9,2.7,2,3.8,2.6c2.5,1.2,7.8,2.1,10.1,1.8l1.7-0.3
		l-0.2,2.5c-0.6,5.8-6.1,14-17.8,26.2C866.9,424.9,867.3,424.7,860.5,423.6z"/>
	<path id="path9137" class="st45" d="M874.6,426c-5.3-1.4-5.3-1.1,0.5-7.2c6.9-7.3,12.3-13.8,14.3-17.1c2.4-4.1,4.1-8.3,4.1-10.7
		v-2.1l2.8-0.6c1.5-0.3,4.4-1.1,6.3-1.8l3.5-1.2l-0.3,1.6c-1,4.9-5.8,14.6-14.2,28.6c-2.8,4.7-5.3,8.8-5.5,9.2
		C885,426.6,879.1,427.2,874.6,426L874.6,426z"/>
	<path id="path9208" class="st45" d="M885.2,387.3c-2.6-0.5-5.7-2.1-7.8-4l-1.7-1.5l-8.2,0.1c-9,0.1-12.2-0.4-16.1-2.5
		c-2.7-1.5-3.8-2.8-4.6-6.1l-0.6-2.3l-4.8-0.3c-5.4-0.4-13.3-2.3-17.3-4.1c-6.3-2.9-8.4-5.9-7.9-11.3c0.2-2.4,0.1-3.1-0.3-2.8
		c-0.3,0.2-0.6,0.7-0.6,1.1c0,2.7-13.6-2.1-16.8-5.9c-3.8-4.5-1.2-8.9,7.4-12.3c7.3-2.9,11-3.8,15.9-3.8c5.5,0,7.6,0.9,13.2,6.1
		c10.5,9.8,23.8,16.7,37.4,19.7c6.9,1.5,19.5,1.5,25.7,0l4.1-1l2.1,3.3c5.5,8.5,7.8,14,7.8,18.2c0,3.3-1.5,5.1-4.7,5.6
		c-1.2,0.2-4.2,1-6.7,1.8C894.1,387.5,889.4,388.1,885.2,387.3L885.2,387.3z"/>
	<path id="path8883" class="st38" d="M828.7,330c0,0-13.4-25.1-18.3-11.4c0.8-1.1-5.7,13.7-0.8,19.9
		C807.5,335.2,827.5,340.9,828.7,330z"/>
	<path id="path8883-3" class="st39" d="M828.2,329c0,0,13.4-25.1,18.3-11.4c-0.8-1.1,5.7,13.7,0.8,19.9
		C849.3,334.1,829.4,339.8,828.2,329L828.2,329z"/>
	<path id="path8883-1" class="st38" d="M896.7,356.6c0,0-13.4-25.1-18.3-11.4c0.8-1.1-5.7,13.7-0.8,19.9
		C875.6,361.7,895.5,367.4,896.7,356.6z"/>
	<path id="path8883-3-7" class="st39" d="M896.3,355.6c0,0,13.4-25.1,18.3-11.4c-0.8-1.1,5.7,13.7,0.8,19.9
		C917.4,360.7,897.5,366.4,896.3,355.6L896.3,355.6z"/>
	<ellipse id="path9335-5" class="st46" cx="830.5" cy="346.5" rx="4.5" ry="4.2"/>
	<ellipse id="path9335-4" class="st46" cx="839" cy="360" rx="4.5" ry="4.2"/>
	<ellipse id="path9335-0" class="st46" cx="860" cy="361" rx="4.5" ry="4.2"/>
	<ellipse id="path9335-1" class="st46" cx="873.5" cy="373" rx="4.5" ry="4.2"/>
	<ellipse id="path9335-2" class="st46" cx="891.5" cy="368.5" rx="4.5" ry="4.2"/>
	<ellipse id="path9335-3" class="st46" cx="902.5" cy="377.5" rx="4.5" ry="4.2"/>
	<ellipse id="path9335" class="st47" cx="813.6" cy="342.3" rx="4.4" ry="4.3"/>
	<ellipse id="path9563" class="st48" cx="847.7" cy="309.5" rx="2.8" ry="3"/>
	<ellipse id="path9563-9" class="st48" cx="855.5" cy="304" rx="2.8" ry="3"/>
	<ellipse id="path9563-91" class="st48" cx="863.5" cy="299" rx="2.8" ry="3"/>
	<path id="path17375_00000101814813940352868820000002779295745076905351_" class="st49" d="M516,171.1c-3.8,0-3.3-4.6-3.3-4.6
		c5.6-29.1,38.1-13.7,38.1-13.7c2.5,5.1-5.8,17.5-8.1,18.2C532,173.7,516,171.1,516,171.1"/>
	<path id="path17377_00000099644770612772158800000013590654144700651919_" class="st50" d="M541.9,159.2c0,6.3-5.1,11.4-11.4,11.4
		s-11.4-5.1-11.4-11.4c0-6.3,5.1-11.4,11.4-11.4S541.9,152.9,541.9,159.2"/>
	
		<ellipse id="circle17379_00000134936871421360777300000007626620216151938495_" class="st51" cx="530.5" cy="159.2" rx="3.8" ry="3.8"/>
	<path id="path17381_00000112596146327713256630000005730201899317842360_" class="st52" d="M512.7,166.3
		c5.6-34.7,34.3-11.6,45.7-16.5C547,160.7,524.1,137.4,512.7,166.3"/>
	<path id="path17383_00000167366075814583670930000017467345330846771595_" class="st49" d="M484,171.1c3.8,0,3.3-4.6,3.3-4.6
		c-5.6-29.1-38.1-13.7-38.1-13.7c-2.5,5.1,5.8,17.5,8.1,18.2C468,173.7,484,171.1,484,171.1"/>
	<path id="path17385_00000136379307749126063300000002315536275892251325_" class="st50" d="M458.1,159.2c0,6.3,5.1,11.4,11.4,11.4
		c6.4,0,11.4-5.1,11.4-11.4c0-6.3-5.1-11.4-11.4-11.4S458.1,152.9,458.1,159.2"/>
	<path id="path17387_00000121274956248423128640000004062209901683707824_" class="st52" d="M487.3,166.3
		c-5.6-34.7-34.3-11.6-45.7-16.5C453,160.7,475.9,137.4,487.3,166.3"/>
	
		<ellipse id="circle17393_00000038400433458177040660000001982415376538804622_" class="st51" cx="469.5" cy="159.2" rx="3.8" ry="3.8"/>
	<path id="path17373_00000091721805921947517330000017244309563888589241_" class="st53" d="M499.8,185.1c-10.7,0-16-7.6-10.7-7.6
		h21.3C515.8,177.5,510.5,185.1,499.8,185.1"/>
	<path class="st10" d="M94.8,293.4c11.3,0.3,22.6,1.2,33.9,2.8c3.4,0.5,6.7,1,10.1,1.6c0.8,0.1,1.7,0.3,2.6,0.5v4.8
		c-13.3,2.1-26.6,3.8-39.8,5c-35.4,3.3-70.9,3.3-106.6-2.2c0.5-0.3,1-0.7,1.5-0.8c7.9-1.9,15.8-4.1,23.8-5.6
		c15.9-2.9,32-5.2,48.1-6.2C77.1,292.8,86,293.1,94.8,293.4z"/>
	<path d="M156,346.2c1.5-0.5,3-0.9,4.4-1.4c0.5-0.2,1.3-0.8,1.3-1.3c0-0.5-0.6-1.2-1.1-1.4c-4.2-1.8-5.5-5.5-6.4-9.5
		c-0.6-2.8-1-5.6-1.5-8.6c0.6,0.1,1.2,0.1,1.7,0.3c8.2,2.5,16.6,3.9,24.5,7.5c2.5,1.2,5.3,2,7.9,2.9c0.6,0.2,1.4,0,2.5,0
		c-0.9-2.3-2.3-3.6-3.6-5c-1.3-1.4-2.9-2.6-3.3-5c1.3-0.2,2.5-0.5,3.7-0.5c2.4,0,4.8,0.2,7.3,0.3c0.9,0,2,0.4,2.6-1.1
		c-0.4-0.3-0.9-0.9-1.4-1.1c-4.3-1.1-7.4-4.1-11-6.4c-0.9-0.6-2-1.2-1.8-3c15.4-0.5,30.8-1,46.1-1.5c0.5,1.1,0.8,1.9,1.1,2.5
		c4.3-0.2,8.3-0.3,12.3-0.5c4.6-0.2,9.1-0.3,13.6-0.8c3.2-0.4,6.5-1.1,9.6-2.2c4.6-1.6,7.3-5.2,9.5-9.4c2.8-5.5,2.8-11.1-0.1-16.4
		c-1.3-2.5-3.3-4.8-5.2-7c-1-1.1-2.3-2.2-3.7-2.6c-7.8-2.2-15.6-4-23.8-3.1c-1.7,0.2-3.4,0.9-4.9,1.7c-2.3,1.3-2.8,3-2,5.4
		c0.7,2.2,1.6,2.6,4.5,2.6c3.4,0,6.8-0.2,10.2,0.2c3.4,0.4,6.9,1.2,10.2,2.2c4.7,1.4,6.1,3.6,6.3,8.5c0.1,2.2-0.7,4.1-2.4,5.3
		c-2,1.5-4.2,2.8-6.8,3.1c-6.3,0.9-12.6,0.9-18.9,0.6c-3.1-0.1-6.1-0.4-9.3-0.6c-0.3,0.8-0.6,1.6-0.9,2.4c-0.9,0.1-1.7,0.2-2.6,0.2
		c-8.6,0.2-17.3,0.4-25.9,0.6c-1.3,0-2.5,0-3.8,0.2c-3.1,0.6-6-0.3-8.7-1.5c-2.1-0.9-2.4-2.3-1.1-4.2c1.5-2.4,3.7-3.9,6.3-4.9
		c1.8-0.6,3.7-1.3,5.5-2c0.8-0.3,1.8-0.8,1.3-1.9c-0.2-0.5-1.2-0.9-1.9-0.9c-2,0-4.1,0.3-6.1,0.2c-2-0.1-4.1-0.4-6-1
		c-2-0.7-2.1-1.7-0.8-3.2c1.5-1.7,3-3.3,4.6-4.9c0.4-0.4,0.9-0.8,1.2-1.3c0.3-0.5,0.5-1.4,0.3-1.8c-0.3-0.4-1.2-0.5-1.8-0.4
		c-1,0.2-2,0.7-3,1c-5.2,1.7-10.2,3.6-15.5,5c-6.7,1.8-13.6,3.3-20.4,4.9c-1.7,0.4-3.3,0.5-4.9-0.9c-1.4-1.3-2.9-0.9-4,0.6
		c-0.3,0.5-0.6,1-0.8,1.5c-3.6-1.4-6.9-2.8-10.3-3.8c-10.1-3.1-20.6-3.8-31.1-4c-18.7-0.2-37.2,2-55.5,5.8
		c-15.4,3.2-30.5,7.6-44.9,14c-3.4,1.5-6.7,3.2-10.6,3.4c-4.2,0.2-8.4,1.1-12.7,1.8c-2.5,0.4-5,0.9-7.4,1.5c-0.6,0.2-1.5,1-1.5,1.5
		c0.1,0.7,0.8,1.4,1.4,2c0.3,0.3,0.9,0.4,1.4,0.5c7.1,1.6,14.4,2.1,21.6,2.2c1.7,0,3.2,0.3,4.7,1.2c6.8,4,14,7.1,21.4,9.7
		c17.4,6.1,35.4,9.3,53.8,10.2c24.3,1.1,48-1.4,71.1-10.9c1.1,2.2,3.1,0.5,5,0.9c0.2,1,0.4,1.9,0.4,2.9c0.1,3.3,0.3,6.6,0.1,9.9
		c-0.3,4.7,1.8,8.4,4.8,11.8c0.2,0.2,0.7,0.2,1.3,0.3C152.5,347.4,154.2,346.7,156,346.2z"/>
	<path class="st23" d="M141.2,305.2c-0.1,2.6-0.3,4.9-0.4,7.5c-1.7,0.5-3.3,1.2-4.9,1.6c-7.8,1.8-15.6,4-23.5,5.3
		c-7.9,1.2-16,1.9-24,2.2c-17.8,0.7-35.5,0-53.1-2.7c-1.9-0.3-3.8-0.6-5.7-0.9c-9.4-1.7-18.6-3.9-27.8-6.4c-3-0.8-6-1.7-9-2.5
		c-0.5-0.1-0.9-0.5-1.3-1c33.6,5,67.1,5.4,100.5,2.8C108.4,309.8,124.8,307.8,141.2,305.2z"/>
	<path class="st24" d="M36,321.4c15.4,2.3,30.9,2.8,46.4,2.6c9.2-0.1,18.5-0.1,27.5-1.9c9.5-1.8,18.9-4.3,28.3-6.5
		c0.7-0.2,1.5-0.4,2.5-0.6v5.9c-3.6,1.3-7.3,2.8-11,4c-15.3,4.9-31,6.9-47,7.1c-23,0.3-45.4-3-67.1-10.7c-4.4-1.6-8.7-3.6-13-5.5
		c-0.8-0.3-1.5-0.7-2.3-1c-0.7-0.3-1.3-0.8-1.9-1.2c0.1-0.1,0.1-0.3,0.2-0.4c1,0.3,2,0.5,3,0.8c4.2,1.1,8.4,2.2,12.7,3.2
		C21.5,318.9,28.7,320.3,36,321.4z"/>
	<path class="st54" d="M98,282.5c10.5,0.1,20.9,0.9,31.1,4c2.8,0.9,5.4,2.2,8.1,3.3c0.4,0.1,0.7,0.3,1.1,0.5
		c0.7,0.3,1.5,0.7,2.4,1.1c0.3,1.4,0.6,2.9,1,4.8c-3.3-0.5-6.2-1-9-1.4c-0.4-0.1-0.8-0.1-1.2-0.2c-12.9-2-25.8-2.9-38.8-3.4
		c-7-0.2-14-0.2-21-0.1c-10.8,0.2-21.4,1.8-32.1,3.3c-7.9,1.1-15.7,2.4-23.5,3.8c-3.7,0.7-7.3,1.8-11,2.7c-0.9,0.2-1.9,0.3-3,0
		c0.5-0.3,1-0.6,1.5-0.9c16.8-6.7,34.3-11.1,52.1-14.1C69.7,283.6,83.8,282.3,98,282.5z"/>
	<path class="st32" d="M230.8,310.4c0-2.8,0-5.1,0-8c1.2,0.1,2.3,0.1,3.4,0.2c7.3,0.4,14.5,0.9,21.8-0.3c2.2-0.4,4.6-1,6.5-2.2
		c6.7-4,6.2-10.6,2.7-15.9c-1.5-2.3-4.5-2.8-7.1-3.7c-6.3-2.1-12.7-2.3-19.2-2.1c-2.1,0.1-3-0.7-2.6-2.4c0.1-0.6,0.6-1.3,1.1-1.6
		c1.2-0.6,2.5-1.3,3.8-1.3c7.9-0.5,15.7,0.7,23.2,3.1c1.4,0.4,2.7,1.6,3.7,2.7c1.4,1.6,2.7,3.3,3.8,5.1c2.7,4.7,2.9,9.6,0.6,14.5
		c-0.5,1.1-1.2,2.2-1.9,3.3c-1.8,2.8-4.3,4.5-7.4,5.7c-7.1,2.6-14.5,2.4-21.8,2.9C237.9,310.5,234.5,310.4,230.8,310.4z"/>
	<path class="st23" d="M185.8,305.9c-2.8,1.7-5.1,3.1-7.3,4.5c0.5,5.3,5.4,6.6,8.5,9.7c-4.1-0.2-8-1.6-12-2.3c-4-0.6-8-1.4-12-2.1
		c-4.1-0.7-8.2-1.4-12.4-2.1c0-2.3,0-4.4,0-6.9C162.3,306.4,173.7,305.6,185.8,305.9z"/>
	<path class="st54" d="M151.6,288.5c11.1-2.5,22.2-4.7,32.6-9c0.1,0.2,0.2,0.3,0.3,0.5c-1,1.1-1.9,2.2-2.9,3.4c-2,2.5-1.7,4.3,1,5.9
		c0.9,0.5,1.8,0.9,3.2,1.6c-11.8,2.9-23.1,5.5-35,6.7C151.1,294.6,151.3,291.7,151.6,288.5z"/>
	<path class="st10" d="M183.8,303.6c-11.2,0.3-22.1,0.6-33.2,0.9c0-1.8,0-3.4,0-5.1c12.1-0.7,23.6-3.8,35.5-6.1
		c-0.6,0.7-1.1,1.3-1.7,2C181.7,298.5,181.6,299.9,183.8,303.6z"/>
	<path class="st24" d="M181.1,321.5c-1.4,2.7-1.4,2.9,0.5,5.6c0.7,0.9,1.3,1.8,1.9,2.9c-10.3-4.5-21.2-6.7-32-9.7
		c-0.3-1.3-0.5-2.6-0.8-3.9C153.5,316,177.1,319.9,181.1,321.5z"/>
	<path class="st35" d="M144.2,288.5c0.8,0.3,1.5,0.7,2.3,0.9c0.8,0.1,1.7,0,2.4,0c-0.2,10.4-0.4,20.7-0.6,31c-1.5,0-3.1,0-4.9,0
		c0-4.5-0.1-8.9,0-13.2c0.1-5.6,0.4-11.2,0.6-16.8C144,289.8,144.1,289.1,144.2,288.5L144.2,288.5z"/>
	<path class="st35" d="M148,323.4c2.3,0.3,3,0.9,3.4,3.1c0.4,2.3,0.7,4.6,1.2,6.9c0.7,3.5,2.1,6.6,5.5,8.7c-2.5,1.1-4.6,2-6.8,3
		c-1.8-2-2.8-4.3-2.8-7c0-2.4,0.1-4.8,0.1-7.3C148.5,328.5,148.2,326.1,148,323.4z"/>
	<path class="st10" d="M211.4,308.6c-9.1,0.4-17.9,0.8-27.4,1.3c1.7-1.5,3.2-1.7,4.6-2.1c3.1-0.8,6.3-0.7,9.3-2.1
		c1.2-0.6,2.9-0.2,4.3-0.2c3.1,0,6.2,0,9.5,0C211.7,306.5,211.5,307.5,211.4,308.6z"/>
	<path class="st10" d="M124.1,472.1c-0.8-5.6-1.5-11.3-2.3-17c1.6,0.1,3.1,0.2,4.8,0.3C126.7,461.1,125.9,466.6,124.1,472.1z"/>
	<path class="st10" d="M227.8,304.6c0.1,1.2,0.3,2.2,0.4,3.5c-4.2,0.4-8.3,0.5-12.6,0.4c-0.1-1.1-0.3-2-0.4-3.3
		C219.5,305,223.6,304.8,227.8,304.6z"/>
	<path class="st55" d="M144.2,288.5c-0.5,0.4-1.1,0.7-1.9,1.3c-0.1-0.7-0.3-1.3-0.4-2.2C142.9,287.9,143.5,288.2,144.2,288.5
		C144.2,288.5,144.2,288.5,144.2,288.5z"/>
	<circle class="st35" cx="109.5" cy="300.6" r="3"/>
	<circle class="st35" cx="87" cy="303.8" r="2"/>
	<circle class="st35" cx="71.3" cy="301.3" r="5"/>
	<circle class="st35" cx="43.6" cy="303.6" r="2.2"/>
	<circle class="st35" cx="126.2" cy="302.3" r="3.4"/>
	<circle class="st35" cx="28.8" cy="303.4" r="4.4"/>
	<circle class="st35" cx="56.8" cy="300.4" r="4"/>
	<circle class="st35" cx="95.6" cy="301.4" r="3.8"/>
	<circle class="st56" cx="13.1" cy="306.7" r="2.8"/>
	<circle class="st56" cx="137.8" cy="286.5" r="5.5"/>
	<circle class="st56" cx="138" cy="296.4" r="5.9"/>
	<circle class="st56" cx="138" cy="306.3" r="5.9"/>
	<circle class="st56" cx="138" cy="315" r="5.9"/>
	<circle class="st56" cx="138.9" cy="322.4" r="5.1"/>
	<path class="st57" d="M150.8,297.3c12-1.2,23.2-3.8,35-6.7c-1.4-0.7-2.3-1.1-3.2-1.6c-2.8-1.6-3.1-3.4-1-5.9
		c0.9-1.1,1.9-2.2,2.9-3.4c-0.1-0.2-0.2-0.3-0.3-0.5c-10.4,4.3-21.5,6.5-32.6,9C151.3,291.4,151.1,294.3,150.8,297.3z"/>
	<path class="st57" d="M227.8,304.3c-4.3,0.2-8.3,0.4-12.6,0.6c0.2,1.3,0.3,2.2,0.4,3.3c4.3,0.1,8.4-0.1,12.6-0.4
		C228.1,306.5,228,305.6,227.8,304.3z"/>
	<path class="st57" d="M241.3,310.1c7.3-0.4,14.7-0.2,21.8-2.9c3.2-1.2,5.7-2.9,7.4-5.7c0.7-1.1,1.4-2.1,1.9-3.3
		c2.3-4.9,2.1-9.8-0.6-14.5c-1.1-1.8-2.4-3.6-3.8-5.1c-1-1.1-2.3-2.2-3.7-2.7c-7.5-2.4-15.3-3.6-23.2-3.1c-1.3,0.1-2.6,0.7-3.8,1.3
		c-0.5,0.3-1,1-1.1,1.6c-0.4,1.7,0.5,2.4,2.6,2.4c6.5-0.2,13,0,19.2,2.1c2.6,0.9,5.6,1.3,7.1,3.7c3.5,5.3,3.9,11.9-2.7,15.9
		c-1.9,1.2-4.3,1.8-6.5,2.2c-7.2,1.2-14.5,0.7-21.8,0.3c-1.1-0.1-2.2-0.1-3.4-0.2c0,2.8,0,5.2,0,8
		C234.5,310.1,237.9,310.3,241.3,310.1z"/>
	<path class="st57" d="M150.6,304.3c11.1-0.3,22-0.6,33.2-0.9c-2.2-3.7-2-5.1,0.6-8.3c0.6-0.7,1.1-1.3,1.7-2
		c-11.9,2.3-23.4,5.4-35.5,6.1C150.6,300.9,150.6,302.4,150.6,304.3z"/>
	<path class="st57" d="M150.7,306.5c0,2.5,0,4.6,0,6.9c4.2,0.7,8.3,1.4,12.4,2.1c4,0.7,8,1.4,12,2.1c4,0.6,7.9,2.1,12,2.3
		c-3.1-3.1-8-4.4-8.5-9.7c2.2-1.4,4.5-2.8,7.3-4.5C173.7,305.3,162.3,306.1,150.7,306.5z"/>
	<path class="st57" d="M198,305.3c-3,1.5-6.2,1.3-9.3,2.1c-1.4,0.4-3,0.6-4.6,2.1c9.5-0.4,18.3-0.8,27.4-1.3
		c0.1-1.1,0.3-2.1,0.4-3.2c-3.4,0-6.5,0-9.5,0C200.8,305.2,199.1,304.8,198,305.3z"/>
	<path class="st57" d="M150.7,316.2c0.3,1.3,0.5,2.6,0.8,3.9c10.8,3,21.7,5.1,32,9.7c-0.5-1.2-1.2-2-1.9-2.9c-1.9-2.7-2-2.9-0.5-5.6
		C177.1,319.7,153.5,315.7,150.7,316.2z"/>
	<path class="st57" d="M144.2,288.3c-0.1,0.6-0.2,1.3-0.2,1.9c-0.2,5.6-0.5,11.2-0.6,16.8c-0.1,4.3,0,8.7,0,13.2c1.8,0,3.4,0,4.9,0
		c0.2-10.4,0.4-20.6,0.6-31c-0.7,0-1.6,0.1-2.4,0C145.7,288.9,145,288.5,144.2,288.3z"/>
	<path class="st57" d="M140.8,314.8c-1,0.3-1.7,0.5-2.5,0.6c-9.4,2.2-18.8,4.6-28.3,6.4c-9.1,1.7-18.3,1.8-27.5,1.9
		c-15.5,0.2-31-0.4-46.4-2.6c-11.6-1.7-23-4.4-34.4-7.4c-1-0.3-2-0.5-3-0.8c-0.1,0.1-0.1,0.3-0.2,0.4c0.6,0.4,1.2,0.9,1.9,1.2
		c5.1,2.2,10.1,4.6,15.2,6.5c21.7,7.7,44.1,11,67.1,10.7c16-0.2,31.7-2.3,47-7.1c3.8-1.2,7.4-2.7,11-4
		C140.8,318.5,140.8,316.7,140.8,314.8z"/>
	<path class="st57" d="M88.3,321.5c8-0.3,16.1-0.9,24-2.2c7.9-1.3,15.7-3.4,23.5-5.3c1.7-0.4,3.3-1,4.9-1.6c0.1-2.6,0.3-5,0.4-7.5
		c-49.9,7.9-99.7,10.5-149.8,3.1c0.4,0.5,0.8,0.8,1.3,1c3,0.9,6,1.7,9,2.5c11,3,22.2,5.6,33.5,7.3C52.8,321.5,70.5,322.2,88.3,321.5
		z"/>
	<path class="st57" d="M152.6,333.2c-0.5-2.3-0.8-4.6-1.2-6.9c-0.4-2.2-1.1-2.9-3.4-3.1c0.2,2.6,0.5,5,0.5,7.4
		c0.1,2.4-0.1,4.8-0.1,7.3c0,2.7,1.1,5,2.8,7c2.2-1,4.3-1.9,6.8-3C154.6,339.8,153.3,336.6,152.6,333.2z"/>
	<path class="st57" d="M16.1,297.8c7.8-1.4,15.7-2.6,23.5-3.7c10.7-1.5,21.3-3.1,32.1-3.3c7-0.1,14-0.1,20.9,0.1
		c13.4,0.4,26.7,1.4,40,3.6c2.8,0.5,5.7,0.9,9,1.4c-0.4-1.9-0.7-3.4-1-4.8c-1.4-0.6-2.4-1.1-3.5-1.6c-2.7-1.1-5.3-2.4-8.1-3.3
		c-10.1-3.1-20.5-3.9-31-4c-14.2-0.2-28.3,1.1-42.3,3.4c-17.9,2.9-35.3,7.3-52.1,14.1c-0.5,0.2-1,0.6-1.5,0.9c1.1,0.3,2.1,0.2,3,0
		C8.8,299.7,12.4,298.5,16.1,297.8z"/>
	<path class="st57" d="M144.1,288.2c-0.6-0.3-1.2-0.6-2.2-1c0.2,0.9,0.3,1.5,0.4,2.2C143.1,288.9,143.6,288.6,144.1,288.2z"/>
	<path class="st57" d="M121.5,455c0.8,5.8,1.6,11.4,2.3,17c1.8-5.5,2.6-11,2.4-16.7C124.6,455.2,123.1,455.1,121.5,455z"/>
	<path class="st57" d="M141.4,302.8c0-1.7,0-3.1,0-4.8c-1-0.2-1.8-0.4-2.6-0.5c-14.5-2.6-29.2-3.9-44-4.4c-8.8-0.3-17.7-0.6-26.5,0
		c-16.2,0.9-32.2,3.3-48.1,6.2c-8,1.5-15.8,3.7-23.8,5.6c-0.5,0.1-1,0.5-1.5,0.8C44,313.2,92.7,310.4,141.4,302.8z"/>
</g>
<g id="skeleton_1_">
	<circle id="rightShoulder" cx="392.8" cy="294.3" r="8.2"/>
	<circle id="rightElbow" cx="289.3" cy="294.4" r="8.2"/>
	
		<ellipse id="rightWrist" transform="matrix(0.8297 -0.5582 0.5582 0.8297 -146.4598 121.4911)" cx="125.9" cy="300.8" rx="8.2" ry="8.2"/>
	<circle id="rightHip" cx="443.1" cy="510.1" r="8.2"/>
	<circle id="rightKnee" cx="449.5" cy="670.3" r="8.2"/>
	<circle id="rightAnkle" cx="449.5" cy="878.3" r="8.2"/>
	<circle id="leftShoulder" cx="605.7" cy="294.3" r="8.2"/>
	<circle id="leftElbow" cx="710.1" cy="294" r="8.2"/>
	<circle id="leftWrist" cx="873.5" cy="300.3" r="8.2"/>
	<circle id="leftHip" cx="559.5" cy="509.3" r="8.2"/>
	<circle id="leftKnee" cx="559.5" cy="670.3" r="8.2"/>
	<circle id="leftAnkle" cx="559.5" cy="878.3" r="8.2"/>
	<polygon class="st58" points="392.7,294.6 443,510.4 559.4,509.6 605.6,294.6 	"/>
	<polyline class="st58" points="391.7,294.6 289,294.6 125.7,300.9 	"/>
	<polyline class="st58" points="607.1,294.2 710.3,294.2 873.6,300.6 	"/>
	<polyline class="st58" points="443,510.4 449.4,670.6 449.4,878.6 	"/>
	<polyline class="st58" points="559.4,509.6 559.4,670.6 559.4,878.6 	"/>
	<circle id="rightEye0" cx="468.6" cy="160.2" r="0.8"/>
	<circle id="rightBrow1" cx="466.4" cy="148.3" r="0.8"/>
	<circle id="rightBrow4" cx="489.7" cy="151.3" r="0.8"/>
	<circle id="nose1" cx="497.6" cy="161.2" r="0.8"/>
	<circle id="rightBrow3" cx="479.9" cy="147.3" r="0.8"/>
	<circle id="rightEye1" cx="473.8" cy="156.5" r="0.8"/>
	<circle id="rightBrow0" cx="462.4" cy="152" r="0.8"/>
	<circle id="rightBrow2" cx="472.6" cy="147.3" r="0.8"/>
	<circle id="rightEye5" cx="473.8" cy="162.5" r="0.8"/>
	<circle id="rightEye2" cx="480.1" cy="156.5" r="0.8"/>
	<circle id="rightEye3" cx="485.3" cy="160.7" r="0.8"/>
	<circle id="nose0" cx="497.6" cy="155.4" r="0.8"/>
	<circle id="nose3" cx="497.6" cy="173.8" r="0.8"/>
	<circle id="rightNose0" cx="486.9" cy="178.3" r="0.8"/>
	<circle id="rightMouthCorner" cx="480.9" cy="200.4" r="0.8"/>
	<circle id="rightNose1" cx="492.1" cy="178.3" r="0.8"/>
	<circle id="rightUpperLipTop0" cx="487.8" cy="197" r="0.8"/>
	<circle id="nose2" cx="497.6" cy="166.7" r="0.8"/>
	<circle id="nose4" cx="497.6" cy="179.1" r="0.8"/>
	<circle id="upperLipTopMid" cx="498.4" cy="196.8" r="0.8"/>
	<circle id="rightUpperLipTop1" cx="494.3" cy="195.9" r="0.8"/>
	<path id="rightMiddleLip" d="M484.5,199.9c0.4,0,0.8,0.4,0.8,0.8c0,0.4-0.4,0.8-0.8,0.8s-0.8-0.4-0.8-0.8S484.1,199.9,484.5,199.9z
		"/>
	<circle id="lowerLipBottomMid" cx="498.4" cy="210" r="0.8"/>
	<circle id="upperLipBottomMid" cx="498.4" cy="200.4" r="0.8"/>
	<circle id="lowerLipTopMid" cx="498.4" cy="203.5" r="0.8"/>
	<circle id="rightUpperLipBottom1" cx="494.5" cy="199.9" r="0.8"/>
	<circle id="rightLowerLipTop0" cx="494.5" cy="202.8" r="0.8"/>
	<circle id="rightLowerLipBottom1" cx="494.3" cy="209.5" r="0.8"/>
	<circle id="rightLowerLipBottom0" cx="487.3" cy="206.7" r="0.8"/>
	<circle id="rightEye4" cx="480.1" cy="161.7" r="0.8"/>
	<circle id="jawMid" cx="498.4" cy="235.8" r="0.8"/>
	<circle id="rightJaw7" cx="483.4" cy="232.6" r="0.8"/>
	<circle id="rightJaw6" cx="473.4" cy="225.9" r="0.8"/>
	<circle id="rightJaw5" cx="461.8" cy="213.4" r="0.8"/>
	<circle id="rightJaw4" cx="455" cy="193.4" r="0.8"/>
	<circle id="rightJaw3" cx="454.2" cy="171.7" r="0.8"/>
	<circle id="rightJaw2" cx="454.2" cy="162.2" r="0.8"/>
	<circle id="rightJaw1" cx="455" cy="150.5" r="0.8"/>
	<circle id="rightJaw0" cx="457.5" cy="141.2" r="0.8"/>
	<circle id="topMid" cx="498.6" cy="115.1" r="0.8"/>
	<circle id="leftTop0" cx="518.3" cy="117.6" r="0.8"/>
	<circle id="leftTop1" cx="530.9" cy="127.1" r="0.8"/>
	<circle id="leftEye0" cx="528.2" cy="160.2" r="0.8"/>
	<circle id="leftBrow1" cx="530.1" cy="148.7" r="0.8"/>
	<circle id="leftBrow4" cx="506.5" cy="150.8" r="0.8"/>
	<circle id="leftBrow3" cx="516.5" cy="147.6" r="0.8"/>
	<circle id="leftEye1" cx="523" cy="156.5" r="0.8"/>
	<circle id="leftBrow0" cx="534.1" cy="151.6" r="0.8"/>
	<circle id="leftBrow2" cx="523.8" cy="147.2" r="0.8"/>
	<circle id="leftEye5" cx="523" cy="162.5" r="0.8"/>
	<circle id="leftEye2" cx="516.7" cy="156.5" r="0.8"/>
	<circle id="leftEye3" cx="511.5" cy="160.7" r="0.8"/>
	<circle id="leftNose0" cx="508" cy="178.3" r="0.8"/>
	<circle id="leftMouthCorner" cx="515.9" cy="200.4" r="0.8"/>
	<circle id="leftNose1" cx="503.2" cy="178.3" r="0.8"/>
	<circle id="leftUpperLipTop0" cx="509" cy="197" r="0.8"/>
	<circle id="leftUpperLipTop1" cx="502.6" cy="195.9" r="0.8"/>
	<path id="leftMiddleLip" d="M512.3,199.9c0.4,0,0.8,0.4,0.8,0.8c0,0.4-0.4,0.8-0.8,0.8c-0.4,0-0.8-0.4-0.8-0.8
		S511.9,199.9,512.3,199.9z"/>
	<circle id="leftUpperLipBottom1" cx="502.4" cy="199.9" r="0.8"/>
	<circle id="leftLowerLipTop0" cx="502.4" cy="202.8" r="0.8"/>
	<circle id="leftLowerLipBottom1" cx="502.6" cy="209.5" r="0.8"/>
	<circle id="leftLowerLipBottom0" cx="509.5" cy="206.7" r="0.8"/>
	<circle id="leftEye4" cx="516.7" cy="161.7" r="0.8"/>
	<circle id="leftJaw7" cx="513.2" cy="233" r="0.8"/>
	<circle id="leftJaw6" cx="523.2" cy="226.3" r="0.8"/>
	<circle id="leftJaw5" cx="534.8" cy="213.7" r="0.8"/>
	<circle id="leftJaw4" cx="541.6" cy="193.7" r="0.8"/>
	<circle id="leftJaw3" cx="542.4" cy="172.1" r="0.8"/>
	<circle id="leftJaw2" cx="542.4" cy="162.5" r="0.8"/>
	<circle id="leftJaw1" cx="541.6" cy="150.8" r="0.8"/>
	<circle id="leftJaw0" cx="539.1" cy="141.6" r="0.8"/>
	<polyline class="st58" points="498.4,115.1 478.6,117.6 466.1,127.1 457.5,141.2 455,150.5 454.2,162.2 454.2,171.7 455,193.4 
		461.8,213.4 473.4,225.9 483.4,232.6 498.4,235.8 513.2,233 523.2,226.3 534.8,213.7 541.6,193.7 542.4,172.1 542.4,162.5 
		541.6,150.8 539.1,141.6 530.9,127.1 518.3,117.6 498.4,115.1 	"/>
	<polyline class="st58" points="462.4,152 466.4,148.3 472.6,147.3 479.9,147.3 489.7,151.3 	"/>
	<polygon class="st58" points="468.6,160.2 473.8,156.5 480.1,156.5 485.3,160.7 480.1,161.7 473.8,162.5 	"/>
	<polyline class="st58" points="486.9,178.3 492.1,178.3 497.6,179.1 497.6,173.8 497.6,166.7 497.6,161.2 497.6,155.4 	"/>
	<polyline class="st58" points="533.9,151.6 529.9,148.7 523.6,147.2 516.3,147.6 506.3,150.8 	"/>
	<polygon class="st58" points="528,160.2 522.7,156.5 516.4,156.5 511.3,160.7 516.4,161.7 522.7,162.5 	"/>
	<polyline class="st58" points="508,178.3 503,178.3 497.6,179.1 	"/>
	<polygon class="st58" points="480.9,200.4 487.8,197 494.3,195.9 498.4,196.8 502.6,195.9 509,197 515.9,200.4 509.5,206.7 
		502.4,209.5 498.4,210 494.3,209.5 487.3,206.7 	"/>
	<polyline class="st58" points="480.9,200.4 484.5,200.7 494.5,199.9 498.4,200.4 502.4,199.9 512.3,200.7 515.9,200.4 	"/>
	<polyline class="st58" points="480.9,200.4 484.5,200.7 494.5,202.8 498.4,203.6 502.4,202.8 512.3,200.7 515.9,200.4 	"/>
	<circle id="rightTop0" cx="478.7" cy="117.6" r="0.8"/>
	<circle id="rightTop1" cx="466.1" cy="127.1" r="0.8"/>
</g>
</svg>
